<svg xmlns="http://www.w3.org/2000/svg" viewBox="0 0 3262.85 1670.43"><g id="Layer_2" data-name="Layer 2"><g id="Ñëîé_1" data-name="Ñëîé 1"><g id="_14" data-name="14"><path d="M275.27,1373.21c-6.45-13-12.83-26.52-19-40.11l15.12-3c6.09,13.5,12.43,26.91,18.84,39.85Zm2704.61-16.82-15.66-1.27c2.6-13.87,5.07-27.83,7.34-41.5l15.68,1.13C2985,1328.47,2982.49,1342.48,2979.88,1356.39Zm-2741-63.69C233.38,1279.27,228,1265.58,223,1252l15.32-2.47c5,13.47,10.33,27.07,15.82,40.42ZM2993.7,1273l-15.7-1c2-13.92,3.84-27.93,5.49-41.62l15.72.82C2997.56,1245,2995.7,1259.06,2993.7,1273ZM208.57,1211.13c-4.56-13.69-8.89-27.53-12.88-41.13l15.48-2c4,13.53,8.28,27.28,12.81,40.88Zm2795.17-21.7-15.74-.66c1.33-13.91,2.5-27.94,3.47-41.7l15.76.48C3006.25,1161.37,3005.08,1175.46,3003.74,1189.43ZM184.38,1128.66c-3.5-13.85-6.75-27.82-9.65-41.51l15.62-1.44c2.88,13.61,6.11,27.48,9.59,41.24Zm2825.26-23-15.77-.3c.62-14,1-28,1.26-41.75l15.78.11C3010.68,1077.49,3010.26,1091.6,3009.64,1105.64ZM166.82,1045.46c-2.35-14-4.4-28.07-6.09-41.83l15.73-.83c1.67,13.66,3.7,27.62,6,41.51Zm2828.38-23.63c-.19-14-.59-28-1.2-41.74l15.77-.3c.61,13.78,1,27.9,1.2,42ZM156.6,961.7c-1-14.08-1.74-28.21-2.06-42l15.77-.16c.32,13.68,1,27.69,2,41.65Zm2834.86-23.31c-1.08-14-2.41-28-3.95-41.64l15.73-.77c1.55,13.75,2.89,27.84,4,41.88Zm-2821-60.52-15.77-.21c.44-14.11,1.28-28.25,2.51-42l15.75.61C171.73,849.89,170.89,863.89,170.46,877.87ZM2982,855.19c-2.11-14-4.5-27.91-7.09-41.45l15.64-1.3c2.62,13.63,5,27.67,7.14,41.72ZM178,794.76l-15.69-1C164.4,779.66,167,765.61,170,752l15.61,1.5C182.65,767,180.07,780.85,178,794.76Zm2788.17-22.31c-3.29-13.87-6.89-27.69-10.71-41.08l15.5-1.92c3.85,13.49,7.48,27.42,10.79,41.4ZM1100.73,771c-21.92-2.27-37.77-8.85-59.73-20.21l10-8c19.24,9.92,33.13,15.87,51.44,17.93Zm54.72-24.73-14-4.73c7.22-9.32,13.6-22.25,19-38.44l15.41,2.22C1170.05,722.6,1163.4,736,1155.45,746.25ZM994.71,721c-12.56-9.22-26-19.84-41.05-32.45l12.4-6.43C980.9,694.51,994.11,705,1006.45,714Zm-798.54-8.53-15.49-2c4.09-13.87,8.71-27.71,13.74-41.12l15.31,2.49C204.77,685.07,200.2,698.73,196.17,712.43Zm2746.49-21.87c-4.67-13.73-9.71-27.34-15-40.46l15.25-2.66c5.32,13.25,10.41,27,15.12,40.85ZM1186.4,663.46l-15.64-1.32c2.42-12.41,4.59-26,6.63-41.55l15.72.9C1191,637.18,1188.85,650.91,1186.4,663.46ZM915,655c-12.82-11.41-26.12-23.47-37.58-33.88L890.22,615c11.44,10.39,24.71,22.43,37.49,33.81Zm1154.74-.85A93,93,0,0,1,2034,647l8.41-8.8c17.26,7.18,34.23,7.2,52.56,1.47l6.78,9.39A106.82,106.82,0,0,1,2069.77,654.16ZM226.51,631.76l-15.08-3c6.27-13.51,13.14-26.94,20.43-39.93l14.8,3.61C239.47,605.2,232.69,618.44,226.51,631.76Zm1926.77-9.91-11.59-7.05a428.9,428.9,0,0,0,39.19-32.2l12.78,6.1A442.54,442.54,0,0,1,2153.28,621.85Zm-164.17-7.15a313.41,313.41,0,0,1-30.93-37.37l14.26-4.44a304.91,304.91,0,0,0,29.9,36.16Zm921.15-4.6c-6.35-13.47-13.13-26.73-20.15-39.41l14.82-3.57c7.1,12.84,14,26.26,20.39,39.89ZM840.07,587.23c-14.43-13-26.45-23.67-37.84-33.58l12.57-6.28c11.45,10,23.52,20.68,38,33.73Zm357.78-7.72-15.74-.67c1.2-12.18,2.41-25.87,3.72-41.86l15.75.56C1200.27,553.56,1199.05,567.29,1197.85,579.51ZM270.3,553.92l-14.43-4.2q13-19.4,27.69-38l14,4.8Q283.08,534.82,270.3,553.92Zm1959.49,0-13.18-5.71c11.21-11.23,22.79-23.13,34.51-35.15l13.27,5.62C2252.64,530.72,2241.05,542.63,2229.79,553.91Zm-297-15.37c-7.14-11.81-14.52-24.7-22.57-39.4l14.84-3.52c8,14.58,15.31,27.36,22.39,39.07Zm934.11-6.49c-8.47-13-17.45-25.66-26.66-37.58l14.06-4.72c9.37,12.12,18.48,25,27.1,38.2ZM763.28,520.71C749,509,735.65,498.58,722.56,488.85l11.8-6.9c13.26,9.85,26.74,20.4,41.21,32.24Zm441.58-25.1-15.75-.53c1.06-13.89,2.12-27.78,3.24-41.92l15.75.54C1207,467.84,1205.92,481.73,1204.86,495.61ZM2299,483.56l-13.16-5.74c13.18-13.14,25-24.51,36-34.75l12.85,6C2323.73,459.24,2312,470.51,2299,483.56ZM328.82,480.62,315.53,475a370.9,370.9,0,0,1,38-34.35l12.05,6.71A358.62,358.62,0,0,0,328.82,480.62Zm1560.34-21.15c-7.23-14-14.33-28-20.31-39.78l15-3.29c6,11.81,13.06,25.77,20.28,39.71Zm-1210-.73a542.93,542.93,0,0,0-47.11-27.16l9.62-8.24a556.84,556.84,0,0,1,48.49,28Zm2130.43-.44a468.8,468.8,0,0,0-35.22-34.17l12.58-6.27a478.4,478.4,0,0,1,36.09,35ZM409.8,419.11l-9.56-8.27a231.92,231.92,0,0,1,58.26-20.3l4.62,9.94A212.59,212.59,0,0,0,409.8,419.11Zm1962.93-3.18-12.25-6.55c14.79-12,28.81-22.38,42.85-31.65l11.16,7.35C2400.84,394.09,2387.18,404.18,2372.73,415.93Zm-1161.09-4.09-15.75-.62c1.37-15.11,2.72-28.83,4.15-42l15.73.74C1214.35,383.09,1213,396.77,1211.64,411.84Zm-631.71-2.18a261,261,0,0,0-57.54-12.24l2.15-10.3A282.48,282.48,0,0,1,587,400.35Zm2153.9-16.8A369.17,369.17,0,0,0,2687.1,366l9.28-8.41a385.75,385.75,0,0,1,48.73,28.05Zm-885.1-12.95c-7.85-15.47-14.31-28.08-20.35-39.69l14.92-3.37c6,11.63,12.53,24.27,20.39,39.76Zm613-21.37-9-8.51a279.11,279.11,0,0,1,58.23-19.69l4.88,9.89A259.64,259.64,0,0,0,2461.69,358.54Zm172.1-12.73a285.73,285.73,0,0,0-58.77-10l1.46-10.35a307.91,307.91,0,0,1,63.44,10.76Zm-1413-17.54-15.71-.92c2-14.58,4.1-28.67,6.35-41.87l15.68,1.16C1224.9,299.76,1222.77,313.77,1220.82,328.27Zm586.57-27.59c-7.62-14-14.8-26.84-22-39.19l14.73-3.71c7.19,12.42,14.41,25.3,22.07,39.39Zm-572.22-55.49-15.62-1.49c3.19-14.55,6.7-28.55,10.43-41.6l15.5,1.92C1241.79,216.93,1238.32,230.78,1235.17,245.19ZM1762,222.68c-8.47-13.44-17-26.3-25.39-38.21l14.31-4.37c8.47,12,17.09,25,25.65,38.59Zm-503.13-59.34-15.3-2.52a383.83,383.83,0,0,1,18-40.64l14.92,3.36A378,378,0,0,0,1258.87,163.34Zm449.73-16.18c-10.37-12.88-21-25-31.5-35.94l13.33-5.56c10.74,11.19,21.54,23.51,32.1,36.62ZM1300.21,85.45l-14.15-4.6A216.65,216.65,0,0,1,1320.2,44.5l12.39,6.43A205.92,205.92,0,0,0,1300.21,85.45ZM1641,77.51a341.35,341.35,0,0,0-42.28-30l10.58-7.71a356.6,356.6,0,0,1,44,31.21ZM1376.59,24l-8.5-8.76A212.63,212.63,0,0,1,1429.28,0l2.4,10.27A191.39,191.39,0,0,0,1376.59,24Zm172.32,0A260.67,260.67,0,0,0,1492,10.72L1494.79.48a283,283,0,0,1,61.61,14.35Z" fill="#dce6ff"/><path d="M575.84,1429.45S191.69,807.64,468.14,669.18c184.77-92.55,380.62,111.47,614.39,3.54,208.11-96.09,142-388.43,473.87-428.83,373.18-45.44,455.34,499.82,761.6,425.29,371.61-90.43,741.27,93.15,421.82,761.46Z" fill="#d4e8ff"/><path d="M3079.83,1215.08c-130.88-12.78-109.52,102.74-296.09,102.74-170.58,0-225.16-439.95-349.27-314.19-636.27,644.75-266.8-274.18-772.81-285.86-228.8-5.28-381.27,155.53-437.49,440.25-81.5,257.39-270.51-196.32-465-154.14-123.62,26.81-109.46,313.94-280,313.94-186.57,0-165.21-115.52-296.1-102.74C42.09,1228.85,0,1433.33,0,1433.33H3262.85S3220.75,1228.85,3079.83,1215.08Z" fill="#eef7ff"/><path d="M2963.93,1340.14c-120.42-5.46-100.77,43.87-272.41,43.87-156.93,0-152.61-110.56-257.63-134.06-193.39-43.27-352.82,175.73-427.8,65.82-142.4-291.64-557.73-437.9-749.33,0-75,109.91-250.31-86.21-427.81-65.82C719.7,1262.51,728.25,1384,571.32,1384c-171.64,0-152-49.33-272.4-43.87-129.64,5.88-168.37,93.19-168.37,93.19H3132.29S3093.57,1346,2963.93,1340.14Z" fill="#dce6ff"/><path d="M2.43,1433.33s-22.9,55,71.94,68.8c129.72,18.84,891.13,68.34,706.16,106-104.42,21.23,53.3,50.07,561.89,60.68s1381.3-31,1087.82-92.53,902.24-14.87,829.4-142.91Z" fill="#cfddf9"/></g><path id="_13" data-name="13" d="M2554.82,460.44c-1.4-6.72-66.79-.86-75,3.9a145.18,145.18,0,0,0,10.06-28.93c6.47,3.49,76-14.35,74.45-21.17-2.52-6.42-66.82,11.08-73.58,17.24a172.4,172.4,0,0,0,3.53-30.16c4.81,4.15,74-27.83,70.61-34s-67.41,24.49-70.56,31.4a200.29,200.29,0,0,0-1.13-24.89c7.8,1,69-33.42,65.91-39.68-4.11-5.5-61.17,27.72-66.4,35.48-.91-7.4-2.38-15.53-4.11-23.39,8.07-.46,62.83-43.4,58.9-49.14-4.89-4.74-55.27,35.89-59.86,44.56q-2.57-12.39-4.51-23.49c8.45-1,62.24-43.21,58.42-49-4.84-4.66-54.08,34.95-59.31,43.85q-2.26-13.37-3.73-24.85c8.25-.71,62.57-43.31,58.7-49.08-4.85-4.67-54.15,35-59.35,43.89-1-8.56-1.75-16.31-2.24-23.3,7.11.91,64.09-43.8,59.85-49.38-4.9-4.79-55.94,36.42-60.14,45-.56-9.52-.67-17.5-.54-24.09,7.07.28,59-50.59,54.15-55.65-5.29-4.08-49.51,40.25-54,49.78.25-21,7.61-23.39,13.44-48.33,13.51-49.32,2.86-52.23-10.42-2.83-6.9,25.38-5.75,31-7.32,48.12-1.95-11.41-27-64.66-32.95-62.53-6.58,2.49,26.29,71.67,32.6,71.31-.13,6.3,0,13.84.47,22.74-3.32-10.35-39.36-60-45.09-56.8-5.94,3.77,39.3,65.06,45.53,63.77.5,6.77,1.22,14.25,2.21,22.45-5.73-9.64-50.13-50.28-55-46-4.4,5.43,48.23,52.75,55.91,53.15q1.45,11,3.59,23.55c-5.8-8.5-57.65-44.7-62.11-39.69-3.83,5.87,56,46.61,63.07,45.21q2,11.15,4.56,23.57c-7.81-7.57-63-34.37-66.56-28.83-2.39,6.52,59.29,35.68,67.82,34.82,1.71,7.81,3,15.51,3.84,22.71-4-7.09-66.31-37.69-69.79-31.67s65,38.64,70.14,34.77a199,199,0,0,1,1.06,23.62c-4.81-7.21-65.78-37.15-69.35-31.22-2.85,6.4,62.44,37.27,69.26,34.88a167.73,167.73,0,0,1-3.63,29.6c-3.57-7.42-63-42.8-67-37.1-3.35,6.16,59.21,42.15,66.22,40.34a140.15,140.15,0,0,1-9.82,27.95c-4.8-8.22-58.47-45.83-63-40.69-3.24,6.08,51.91,43.63,61,44.73-11.55,22.11-25.17,32.65-25.34,32.78l2.63,3.47c.62-.47,14.82-11.4,26.91-34.89C2483.77,472.79,2555.13,467.42,2554.82,460.44Z" fill="#ce4abf"/><path id="_12" data-name="12" d="M2665.42,325.7c13.85,19,24.49,36.63,28.76,46.94q3.42-20.2,7-37.51c-11.34-4.58-66-104.1-56.4-109.91,9.67-3.8,55.2,81,58.81,98.64,2.84-12.93,5.71-24.6,8.54-35.11-10.1-1.33-46.09-117.94-35.11-120.47,4.57-1.39,16.46,24.53,26.55,57.88,6.43,21.25,10.58,40.38,11.56,51.83,4-13.72,7.8-25.17,11.32-34.63-9.73-2.78-22.83-124.78-11.56-125,10.18.05,19.81,93.58,16.74,112,11.39-25,12.68-34.21,36.51-68.88,46.18-67.63,60.77-57.65,14.26,9.79-22,34.66-34.38,34.36-45.88,65.94,11.66-12,102.14-55.7,107.9-46.69,4.61,10.23-100.68,59.6-111.3,55.48-3.68,9.89-7.72,22-11.9,36.69,10.73-10.65,109.9-46,114.67-36.15,3.39,10.7-106.25,48.1-116.58,43-2.95,10.83-6,22.92-8.93,36.4,12.45-10.66,108.15-44.6,112.91-35,2.73,10.8-101.74,46.4-114.68,43.15-2.55,12.12-5.07,25.27-7.51,39.54,12.51-10.65,108.1-44.56,112.86-34.92,2.62,10.8-100.82,46.06-114.23,43.16q-2.91,17.82-5.6,37.91c11.41-10.66,109.27-45.5,114-35.72,2.82,10.79-102.48,46.67-115,43.13-1.52,12.69-3.53,25.47-6.15,37.53,11.91-8.94,115.93-29,119.12-18.51,1.27,11.1-109.27,30.79-120.6,25.13a328.93,328.93,0,0,1-11.34,38.15c8.55-8.73,121.43-21.13,123.14-10.08s-119.26,22.8-124.64,14.09a271.53,271.53,0,0,1-21.2,43.64C2665,551.4,2771.38,559,2771.71,570c-1.37,11.12-115.5,1.35-123.67-7.32A234.1,234.1,0,0,1,2617.45,601c14.81-2.9,117,22.9,115.45,33.76-3.3,10.7-113.87-18.88-120.45-28.85-30.7,29.12-57.95,38.13-59.12,38.51l-2.15-6.64c.28-.09,26.46-8.81,55.64-36.15-13-6.36-76.67-92.46-68.49-99.85,9.59-5.3,70.7,79.76,73.68,94.81a225,225,0,0,0,29.63-37.06c-11.52-.91-87.13-88.5-78.78-96,9.08-6.45,80.07,78.31,81.61,91.49a268.63,268.63,0,0,0,21.14-42.82c-11.53.06-94-81.24-86.26-89.37,8.61-7,84.79,70.36,88.33,83.88a316.81,316.81,0,0,0,10.88-36.27c-9.77,3.17-96-82.14-87.63-89.65,8.51-7.2,86.34,71.87,88.74,84.78,2.53-11.33,4.66-23.65,6.21-36.35-13.27-3.14-91.23-80-84.11-88.51,8.35-6.44,77.5,63.14,85.37,78.78q2.67-20.16,5.58-38c-11.32-1.54-80.37-94.91-71.44-101.7C2625.14,277,2644.9,297.53,2665.42,325.7Z" fill="#7689d6"/><path id="_11" data-name="11" d="M2856.13,567.3c.12,14.78-.89,27.67-2.48,34.5,6.09-6,11.86-11.56,17.31-16.59-4.12-6.49,4.4-77.3,11.41-76.77,6.33,1.6-1.43,61.54-6.06,71.89,6.18-5.56,11.92-10.47,17.21-14.8-4.67-4.37,19.62-77.1,26.15-74.37,2.84,1-.57,18.55-7.62,39.27-4.49,13.21-9.37,24.5-13.06,30.7,7-5.55,13.19-10,18.45-13.54-4-5,34-72.08,39.85-68.09,5.19,3.75-24.12,55-32.41,63.3,15-8.61,19-12.82,43.85-21.81,48.33-17.64,52.12-7.2,3.7,10.22-23.94,9.64-30.14,5-47.57,16.88,10.35-1.86,72.55,8.93,72.19,15.64-1.39,6.91-73.23-6.4-77.14-12.39-5.49,3.7-12,8.41-19.5,14.38,9.38-1.51,73,16.72,71.79,23.5-2.18,6.71-71.86-14.32-75.27-20.7-5.47,4.45-11.43,9.52-17.88,15.32,10.26-.89,71.55,16.79,70.46,23.46-2.56,6.52-69-13.53-74.36-19.93-5.74,5.26-11.84,11-18.3,17.45,10.28-.87,71.51,16.8,70.41,23.46-2.61,6.48-68.34-13.37-74.13-19.76q-8,8-16.73,17.31c9.73-1.27,72.45,16.75,71.31,23.5-2.51,6.54-69.41-13.67-74.52-20.06-5.42,5.91-11.13,11.71-16.87,16.91,9.35-.21,69.82,27.6,67.6,34.14-3.41,6.13-67.07-24.26-70.78-31.3a206.39,206.39,0,0,1-19.76,15.33c7.56-1.33,69.75,33.64,66.58,39.91s-69.25-32-68.81-38.41a170.48,170.48,0,0,1-26.8,14.53c9,2,60.54,44.82,56.68,50.56-4.77,5.18-59.48-41.57-60.48-49a146.93,146.93,0,0,1-29.66,8.4c8.62,3.94,51.36,54.5,46.6,59.49-5.6,4.25-51.24-51.31-51-58.81-26.33,3.63-43.54-1.73-44.28-2l1.33-4.18c.17.06,16.74,5.19,41.64,1.9-4.32-8-5.31-75.27,1.57-76.06,6.84.81,6.92,66.61,2.93,75.39a141.68,141.68,0,0,0,28.69-8.09c-5.54-4.68-12.11-77.08-5.1-77.85,7,0,12.23,69.3,8.2,76.59A168.65,168.65,0,0,0,2788,662.63c-5.91-4.19-18.27-75.88-11.35-77.21,7-.41,17.55,67,14.42,75.17A200.82,200.82,0,0,0,2809.87,646c-6.15-2-19-77.09-11.95-77.85,7-.56,17.79,68.3,14.3,75.77,5.44-4.86,11-10.37,16.47-16.29-5.63-6.46-17.32-74.24-10.57-76,6.63-.23,16.47,60.6,14.78,71.47q8.73-9.31,16.76-17.38c-5.22-4.93-6.31-77.88.73-78.08C2853.39,527.68,2856,545.41,2856.13,567.3Z" fill="#7689d6"/><path id="_10" data-name="10" d="M765.93,454.21c3.11-6.1,64.66,16.75,71.33,23.5a145.06,145.06,0,0,1-2.09-30.56c-7.17,1.67-69.56-33.84-66.27-40,4.12-5.53,61.55,28.27,66.45,36a172.94,172.94,0,0,1,4.54-30c-5.74,2.74-64.1-46.32-59.18-51.36s58.59,41.35,59.8,48.85a205.58,205.58,0,0,1,7.64-23.72c-7.79-1.05-57.76-50.39-53.14-55.61,5.4-4.23,51.72,42.83,54.72,51.69,2.82-6.91,6.38-14.36,10.12-21.49-7.67-2.56-49.2-58.39-43.9-62.9,6-3.28,43.89,49.17,46,58.74q5.73-11.28,10.53-21.48c-7.89-3.2-48.69-58.06-43.48-62.63,5.9-3.23,43,47.94,45.69,57.91,3.8-8.21,7.16-15.86,10.14-23-7.77-2.85-49-58.25-43.72-62.79,5.9-3.22,43,48,45.71,57.95,3.24-8,6-15.27,8.28-21.89-7.09-1-50.3-59.11-44.75-63.37,6-3.34,44.4,49.85,46.2,59.18,3-9,5.25-16.7,6.86-23.09-6.9-1.6-43.63-64.33-37.61-67.93,6.18-2.55,37.18,51.85,39,62.21,5.26-20.28-1.2-24.56-.26-50.16-.06-51.14,11-51.14,10.8,0,0,26.31-2.6,31.4-5.6,48.35,4.89-10.49,43-55.29,48.24-51.66,5.7,4.13-44.21,62.23-50.2,60.23-1.54,6.11-3.62,13.36-6.44,21.82,5.93-9.12,53.76-47.56,58.44-42.95,4.74,5.2-55,52.43-60.7,49.55-2.26,6.4-4.92,13.42-8,21.08,8.05-7.8,61.58-35.33,65.16-29.93,2.82,6.4-60.41,38.21-67.92,36.58q-4.29,10.18-9.66,21.78c7.83-6.68,67.38-28,70.36-22,2.15,6.67-66.33,30.23-72.74,27q-4.85,10.23-10.59,21.53c9.52-5.24,69.84-16.58,71.8-10.3.59,6.91-66.6,18.83-74.6,15.76-3.7,7.08-7,14.17-9.67,20.89,5.75-5.78,73.88-18.92,75.66-12.19S856,394,852,388.93a199.56,199.56,0,0,0-7.25,22.5c6.55-5.69,73.24-18.53,75.13-11.88,1.06,6.92-70,19.54-76,15.44a167.06,167.06,0,0,0-4.28,29.51c5.39-6.22,72-24.72,74.36-18.17,1.61,6.81-68.21,25.08-74.5,21.49a141,141,0,0,0,2.12,29.55c6.79-6.67,68.47-28.83,71.46-22.7,1.54,6.72-61.55,28.44-70.57,27.13,5.33,24.37,15.7,38.12,15.82,38.29l-3.45,2.65c-.47-.61-11.3-14.88-16.78-40.73C831.23,484.82,763.79,460.87,765.93,454.21Z" fill="#ce4abf"/><path id="_9" data-name="9" d="M707.35,886.71C701.24,883.6,724,822,730.76,815.35a144.77,144.77,0,0,1-30.56,2.13c1.68,7.16-33.75,69.59-39.93,66.31-5.53-4.11,28.2-61.58,35.91-66.49a172.73,172.73,0,0,1-30-4.5C668.9,818.53,619.9,877,614.86,872s41.28-58.64,48.78-59.86a205.94,205.94,0,0,1-23.73-7.61c-1,7.79-50.32,57.82-55.55,53.21C580.12,852.38,627.13,806,636,803c-6.9-2.81-14.36-6.36-21.49-10.09-2.56,7.67-58.34,49.27-62.85,44-3.29-6,49.11-43.94,58.68-46.09q-11.28-5.73-21.49-10.51c-3.19,7.89-58,48.76-62.58,43.56-3.23-5.9,47.89-43.05,57.85-45.77q-12.3-5.68-23-10.1c-2.84,7.77-58.18,49-62.73,43.79-3.23-5.9,47.95-43.09,57.89-45.78-8-3.23-15.27-6-21.89-8.26-1,7.09-59.05,50.38-63.33,44.83-3.34-6,49.8-44.46,59.13-46.27-9-3-16.7-5.23-23.1-6.83-1.58,6.9-64.28,43.7-67.88,37.69-2.55-6.18,51.81-37.25,62.16-39-20.29-5.24-24.56,1.23-50.16.32-51.14.12-51.15-10.91,0-10.8,26.3,0,31.4,2.56,48.36,5.54C489,738.27,444.2,700.19,447.82,695c4.12-5.69,62.28,44.14,60.28,50.14,6.12,1.53,13.37,3.6,21.83,6.41-9.12-5.92-47.62-53.7-43-58.39,5.19-4.75,52.49,55,49.62,60.64,6.4,2.26,13.43,4.91,21.09,8-7.81-8-35.4-61.55-30-65.13,6.39-2.82,38.29,60.37,36.66,67.88q10.19,4.28,21.79,9.63c-6.68-7.82-28.05-67.34-22-70.34,6.66-2.15,30.3,66.3,27.11,72.72q10.25,4.83,21.55,10.56c-5.26-9.51-16.66-69.82-10.39-71.78,6.92-.6,18.91,66.57,15.85,74.58,7.09,3.68,14.18,6.94,20.91,9.64-5.79-5.74-19-73.86-12.29-75.64S647,796.75,642,800.68a199.42,199.42,0,0,0,22.52,7.22c-5.7-6.54-18.63-73.21-12-75.12,6.93-1.07,19.63,70,15.54,76A167.69,167.69,0,0,0,697.55,813c-6.23-5.39-24.81-72-18.26-74.34,6.81-1.61,25.16,68.18,21.58,74.48A141.51,141.51,0,0,0,730.42,811c-6.68-6.78-28.92-68.43-22.78-71.44,6.71-1.54,28.51,61.53,27.2,70.55,24.37-5.36,38.11-15.74,38.27-15.87l2.66,3.45c-.61.47-14.87,11.31-40.71,16.83C737.88,821.37,714,888.84,707.35,886.71Z" fill="#ce4abf"/><path id="_8" data-name="8" d="M651.49,405.25c-8.83,21.81-14.89,41.48-16.54,52.51q-8.21-18.76-15.9-34.68c9.9-7.2,38.78-117,28.1-120.31-10.3-1.34-33.94,91.91-33.16,110q-8.84-17.78-16.79-32c9.47-3.74,16.15-125.6,4.88-125.4-4.77-.23-10,27.79-11.74,62.6-1.1,22.17-.48,41.73,1.33,53.08-7.16-12.35-13.66-22.53-19.36-30.85,8.76-5.06-8.08-126.59-19.07-124.12-9.87,2.51,3.45,95.59,10.87,112.68-17.11-21.52-20.59-30.12-52.1-58-61.2-54.42-72.93-41.2-11.47,13,29.77,28.29,41.68,25,60.49,52.86-14.22-8.81-112.59-29.3-116-19.16-2,11,112.12,33.44,121.41,26.86,6,8.71,12.83,19.49,20.44,32.72-13-7.73-117.77-18-120-7.29-.7,11.19,114.74,20.92,123.52,13.47,5.49,9.79,11.33,20.79,17.48,33.15-14.66-7.32-115.73-17.08-118-6.57,0,11.14,110,20.37,121.72,14.09,5.41,11.14,11,23.28,16.86,36.54-14.71-7.31-115.67-17.05-118-6.54.07,11.11,109,20.26,121.28,14.2q7.14,16.59,14.61,35.42c-13.65-7.58-117-17.67-119.3-7-.12,11.15,110.74,20.45,122,14,4.56,11.94,9.6,23.86,15.06,34.92-13.72-5.79-119.5-.07-120.06,10.9,1.46,11.08,113.48,3.4,123.1-4.83a329.51,329.51,0,0,0,20.25,34.27c-10.41-6.41-122.94,8.9-121.92,20s121.23-6.77,124.34-16.52A270.84,270.84,0,0,0,721,626.38c-14.47-2.25-115.85,30.86-113.51,41.61,4,10.46,112.39-26.66,118.22-37a233.6,233.6,0,0,0,39,29.82c-15.07.77-107.94,50.55-103.83,60.71,5.8,9.59,105.91-45.89,109.88-57.16,36.84,20.82,65.46,23,66.69,23l.47-7c-.28,0-27.81-2.14-62.73-21.6,11.09-9.32,52-108.27,42.25-113.47-10.58-2.81-49.27,94.52-48.51,109.84a224.77,224.77,0,0,1-37.72-28.78c10.95-3.67,63.09-107,53.18-112.21-10.38-4.06-58.72,95.37-57,108.53a267.36,267.36,0,0,1-30.88-36.42c11.2-2.74,71.51-101.59,62-107.6-10-4.7-65.22,88.8-65.39,102.78A320.77,320.77,0,0,1,673.8,548.9c10.25.7,73.27-103,63.31-108.21-10-4.92-66.36,90.64-65.56,103.75-5.2-10.38-10.25-21.82-14.84-33.76,12.12-6.26,69.15-99.71,60.17-106.25-9.66-4.23-59.89,80-63.75,97.11q-7.47-18.9-14.62-35.55c10.61-4.23,55-111.55,44.68-116C678.76,348.23,664.57,373,651.49,405.25Z" fill="#7689d6"/><g id="_7" data-name="7"><path d="M958.46,452.79H841.67a46.88,46.88,0,0,0-46.87,46.87c-13.61,102.88,34.17,671.61-32.93,744.4-67.14,65.44-228.24,36.17-230.75,49.93l-17.46,95.31c-10.07,72.46,115.05,72.18,171,76.79,150-.36,252.7-63,297.45-195.78,44.73-103.65,15.21-651,23.28-770.65A46.89,46.89,0,0,0,958.46,452.79Z" fill="#f49f9f"/><path d="M1915.28,582.22C1694,327.7,1250.34,426.2,1151.33,749.05c-85.45,240-16.15,573.33,236.08,679.86,167.8,73.68,388,37.1,513.84-98.91C2073.08,1155.4,2088.81,776.07,1915.28,582.22Zm-338,694.82c-333.21-9.79-317.92-651,1.33-650C1904.63,631,1902,1275.23,1577.31,1277Z" fill="#f49f9f"/><path d="M2750.08,958.46a294.33,294.33,0,0,0-56.4-45.35c125.78-91.8,130.46-300.22,3.74-391.41-65-52.29-150.54-75.62-277.09-75.62-79.6,0-165.09,7.59-223.1,19.8A46.88,46.88,0,0,0,2160,511.74v890a46.87,46.87,0,0,0,40.46,46.43c68,12.36,303.83,19.18,387.9-11.07C2806,1394.17,2903.54,1117.47,2750.08,958.46Zm-171.23-227.9c-1.11,102.79-124.45,108.84-208.3,104.82V631.74C2455.71,628.82,2577.36,618.51,2578.85,730.56Zm-208.3,287.16c86.72-.16,230.84-6.67,236.5,127.64,2.33,124-135.51,133.72-236.5,128Z" fill="#f49f9f"/><path d="M889,452.79H772.24a46.87,46.87,0,0,0-46.87,46.87c-12.64,104,32.62,668.77-32.94,744.4-11.36,13.48-31.46,29-86.65,29-40,0-70-10-81-14.27-26.35-11-58.65,7-63.09,35.25l-17.45,95.31c-10.06,72.44,115,72.19,170.94,76.79,150.05-.36,252.71-63,297.45-195.78,44.9-103.84,15.1-650.82,23.29-770.65A46.89,46.89,0,0,0,889,452.79Z" fill="#fcb4b4"/><path d="M1845.85,582.22c-221.27-254.52-664.95-156-763.95,166.83-85.45,240-16.15,573.33,236.07,679.86,167.8,73.68,388,37.1,513.85-98.91C2003.64,1155.4,2019.38,776.07,1845.85,582.22Zm-338,694.82c-333.2-9.79-317.91-651,1.34-650C1835.19,631,1832.59,1275.23,1507.87,1277Z" fill="#fcb4b4"/><path d="M2680.64,958.46a294.27,294.27,0,0,0-56.39-45.35C2750,821.31,2754.7,612.89,2628,521.7c-65-52.29-150.54-75.62-277.08-75.62-79.61,0-165.09,7.59-223.1,19.8a46.87,46.87,0,0,0-37.21,45.86v890a46.87,46.87,0,0,0,40.46,46.43c68,12.36,303.83,19.18,387.89-11.07C2736.56,1394.17,2834.1,1117.47,2680.64,958.46Zm-171.22-227.9C2508.3,833.35,2385,839.4,2301.11,835.38V631.74C2386.28,628.82,2507.93,618.51,2509.42,730.56Zm-208.31,287.16c86.73-.16,230.84-6.67,236.5,127.64,2.34,124-135.5,133.72-236.5,128Z" fill="#fcb4b4"/></g><g id="_6" data-name="6"><path d="M1569.45,144.47s8.86-17.11,35.86-12.06,33.37,39.31,42.54,54.91c19.41,33,25.22,68.13,15.14,85-11.2,18.72-35.94,11.4-72,8-38.55-3.58-54.7-37-30.72-83Z" fill="#c92828"/><path d="M1580.66,224c-10.56,15.48-17.31,91-17.53,96.83l-55-4.06c-3.6-27.64,33-84.3,66.46-91h0A53.8,53.8,0,0,1,1580.66,224Z" fill="#3a72aa"/><path d="M1424.08,640.16l53.69-.59c-.14-8.58-2.43-25.91-.72-35.7l-23.18,3c.64,4.7,2.07,14.91-5.74,17.35-10.11,3.16-21.12,2.19-27.43,10A3.92,3.92,0,0,0,1424.08,640.16Z" fill="#f99370"/><path d="M1479.34,634.38a13.67,13.67,0,0,1-1.57,5.19l-54.21.59a3.85,3.85,0,0,1-3.73-5c2-5.83,9.05-14.34,34-15.92,0,0,8.53,2.43,22.48-.25C1476.33,619,1480.16,627,1479.34,634.38Z" fill="#1d3f70"/><path d="M1435.77,633a1.08,1.08,0,0,1-1-.67,11.6,11.6,0,0,0-5.8-6.4c-2.87-4.37,5.33-1.33,7.82,5.55A1.1,1.1,0,0,1,1435.77,633Z" fill="#e8c0a6"/><path d="M1444.29,631.91a1.1,1.1,0,0,1-1-.76,15.16,15.16,0,0,0-6.84-8.25c-2.63-5.1,6.92.28,8.93,7.57A1.11,1.11,0,0,1,1444.29,631.91Z" fill="#e8c0a6"/><path d="M1454,630.61a1.09,1.09,0,0,1-1-.73,19.82,19.82,0,0,0-6.94-9.06c-2-5.34,6.65,1.07,9,8.32A1.1,1.1,0,0,1,1454,630.61Z" fill="#e8c0a6"/><path d="M1419.86,635l59.48-.65a13.67,13.67,0,0,1-1.57,5.19l-54.21.59A3.85,3.85,0,0,1,1419.86,635Z" fill="#395b96"/><path d="M1594.16,435.19c-26.42-1.11-72.46-15.66-92.31,18-21.74,36.71-16.42,114.6-14.22,152.24-29,9.34-44.6,0-44.6,0-12.36-77-53.06-252.56,83-228.21h91.26C1632.6,408.29,1619,434.67,1594.16,435.19Z" fill="#3a72aa"/><path d="M1488.46,640.15l53.68-.59c-.13-8.58-2.42-25.9-.72-35.69l-23.17,3c.64,4.7,2.25,14.91-5.74,17.34-10.13,3.1-21.12,2.19-27.44,10A3.91,3.91,0,0,0,1488.46,640.15Z" fill="#f99370"/><path d="M1543.72,634.38a13.72,13.72,0,0,1-1.57,5.19l-54.21.59a3.85,3.85,0,0,1-3.73-5c2-5.83,9-14.35,34-15.93,0,0,8.53,2.44,22.48-.24C1540.71,619,1544.54,627,1543.72,634.38Z" fill="#1d3f70"/><path d="M1500.15,633a1.11,1.11,0,0,1-1-.67,11.6,11.6,0,0,0-5.79-6.4c-2.87-4.38,5.33-1.33,7.82,5.55A1.1,1.1,0,0,1,1500.15,633Z" fill="#e8c0a6"/><path d="M1508.67,631.91a1.1,1.1,0,0,1-1-.77,15.26,15.26,0,0,0-6.84-8.25c-2.63-5.09,6.92.29,8.93,7.58A1.11,1.11,0,0,1,1508.67,631.91Z" fill="#e8c0a6"/><path d="M1518.37,630.61a1.09,1.09,0,0,1-1-.73,19.82,19.82,0,0,0-6.94-9.06c-2-5.35,6.65,1.07,9,8.32A1.1,1.1,0,0,1,1518.37,630.61Z" fill="#e8c0a6"/><path d="M1484.24,635l59.48-.65a13.72,13.72,0,0,1-1.57,5.19l-54.21.59A3.85,3.85,0,0,1,1484.24,635Z" fill="#395b96"/><path d="M1533.5,377.18l-7.81,56.9c-34.13,13.44-36.42,50.3-39.54,90.72C1470.35,462.35,1471.56,398.27,1533.5,377.18Z" fill="#23659b"/><path d="M1628.55,437.83c-27.66,17-55.27-1.55-74.72,37.71-15.7,34.38-6.9,100.07-2.58,129.85-29,9.34-44.61,0-44.61,0-17.2-66.47-56.54-220.93,54.62-228.21,30.44-1,70.44-.7,97.34-2.32C1658.6,374.86,1666.07,414.73,1628.55,437.83Z" fill="#3a72aa"/><path d="M1659.14,359.13c2.36,16.84-1.06,36.41-1.06,36.41-35.94-11.42-68.6-12.48-123.19-20.1,34.47-103.26-45.37-31,45.77-151.43l22.56,2C1628.84,245.32,1645.35,270.87,1659.14,359.13Z" fill="#3a72aa"/><path d="M1534.09,297.67a.91.91,0,0,1-.91-1c1.81-15.09,17.79-34.64,19.89-33.59,1.44,1.84-17,18-18.07,33.74A.91.91,0,0,1,1534.09,297.67Z" fill="#23659b"/><g id="_15" data-name="15"><polygon points="1438.56 383.08 1559.36 383.08 1535.31 294.54 1415.24 294.54 1438.56 383.08" fill="#163260"/><rect x="1438.56" y="382.64" width="120.8" height="6.01" fill="#234270"/><polygon points="1533.49 294.54 1537.81 294.54 1561.37 382.64 1618.7 382.64 1618.7 388.66 1557.35 388.66 1557.35 383.28 1533.49 294.54" fill="#0b274f"/></g><path d="M1642.94,243.19c27.84,20.87,42.72,58.43,35.36,92.59-2.82,19.18-14.92,37.43-33.86,42.86-9.35,3.74-53,9.76-50.93-5.73.69-3.71,4-5.08,7.18-6.07,5.25-1.85,10.67-3.9,15.69-6.18,9-4.66,20.52-9,22.47-19.11,4.16-23.54-5.48-46.55-23.07-61.91,0,0-.08-.07.18.12C1592.12,262,1619,225.66,1642.94,243.19Z" fill="#f99370"/><path d="M1659.63,374.44a101.8,101.8,0,0,1-37.93,8.64s2.38-15.4-8.75-21.75c62.7-47.65-26.85-67.71-9.65-137.73C1670.53,224.8,1740,326.71,1659.63,374.44Z" fill="#3a72aa"/><path d="M1566.9,382.64s5.38-18.81,37.5-16.64l6.72,16.64Z" fill="#f99370"/><path d="M1629.15,382.56c-4.59.51-7.45.52-7.45.52s2.38-15.4-8.75-21.75a60.39,60.39,0,0,0,6.32-4.94A28.44,28.44,0,0,1,1629.15,382.56Z" fill="#23659b"/><path d="M1618.7,359a.92.92,0,0,1-.6-1.61c27.84-24.81,14.2-51.07-2.36-68.08-.81-.84.55-2.14,1.34-1.25C1634.7,305.7,1648.06,334.79,1618.7,359Z" fill="#23659b"/><path d="M1628.55,382.66c-5.21-3,14.62-1.52,29.7-8.65a.92.92,0,0,1,1.2.5.91.91,0,0,1-.5,1.19A98.63,98.63,0,0,1,1628.55,382.66Z" fill="#23659b"/><path d="M1609.51,251.78c-.64,4.81-5.24,6.31-6.4,6.06-16.17-6.91-4.66,14.91-11.32,17.14-5.59,1.86-6.26-5.43-11.13-5.83-7.09-.58-8.53,3.27-11,.93-3.47-3.26,4.92-9,3.84-14.8-.75-4.1-8.91,0-8.8-8.42s9.62-20.71,9.92-21.1h0c6-3.33,19-1.81,24.88-1.74.09-.59,3.81-.41,3.81-.41a10,10,0,0,1,5.1.38C1609.64,230.72,1610.79,244.55,1609.51,251.78Z" fill="#f4d4be"/><path d="M1581.2,216l-.55,8s-.75,7.71-.75,22.06c0,20.16,5,17.82,11.89,3.73,3.8-7.74,11.51-25.56,11.51-25.56a80.69,80.69,0,0,1,.38-8.51Z" fill="#f99370"/><path d="M1608.07,193c-.09.39-.2.77-.32,1.14-.49-.39-3.24,13-4.24,23.13-9.65,5.65-20.81,4.9-22.72,4.31.51-15,1.78-37.58,13.37-41.78C1601.93,177.35,1610.17,185,1608.07,193Z" fill="#e57d61"/><path d="M1578.84,143.42c-29.13-3.49-33.76,42.5-14,59.42Z" fill="#c92828"/><path d="M1613.18,175.83c1.41,10,1.5,21.82-4.11,30.48h0c-15.33,25.07-66,8.91-52.15-20.82a29.56,29.56,0,0,0,3.34-12.32C1560.71,132.12,1609.13,140.74,1613.18,175.83Z" fill="#f99370"/><path d="M1574.85,181.18c-1.38-1.4.84-3.54,2.18-2.11S1576.2,182.61,1574.85,181.18Z" fill="#c16256"/><path d="M1562.05,182.88c-1.39-1.39.83-3.54,2.18-2.11S1563.39,184.31,1562.05,182.88Z" fill="#c16256"/><path d="M1569.68,194.26c-2.56.41-6.28-.25-3.85-3.33,2.27-2.32,2.54-8.61,2.54-8.67a.58.58,0,0,1,1.15,0c0,.28-.29,6.8-2.88,9.44-.29.3-.59.71-.38,1,.61.72,3.5.84,5.15-.31a.58.58,0,0,1,.8.14C1572.64,193.73,1570.57,194,1569.68,194.26Z" fill="#c16256"/><path d="M1613.18,175.83c1.41,10,1.5,21.82-4.11,30.48h0c2.59-6.49,1.62-18.93,1.62-18.93l-3.58-4.56c-36.52-.49-41.89-28-41.89-28C1581.26,133.21,1611.28,152.68,1613.18,175.83Z" fill="#e57d61"/><path d="M1568,151.31s5.43,27.13,38.49,28.77l8.85-9.17C1619.47,147.29,1591.4,123.11,1568,151.31Z" fill="#c92828"/><path d="M1620.75,178.79c1.17,11.49-13.34,12.81-14.25,1.29C1605.32,168.6,1619.84,167.28,1620.75,178.79Z" fill="#f99370"/><path d="M1617.33,175.82h0c-1.48-4.56-10.24.31-6.51.48,0-.2,3.9-2.53,5.11-.51-3.83,1.81-5.1,8.94-2.89,6.63,0,0,.47-4.1,3.47-5.64C1618,187.16,1619.37,180,1617.33,175.82Z" fill="#c16256"/><path d="M1616.3,185.65a1.29,1.29,0,0,1-2.46.76A1.29,1.29,0,0,1,1616.3,185.65Z" fill="#f4d4be"/><path d="M1579.9,280.25c0,3.33-5.17,3.33-5.12,0S1580,276.93,1579.9,280.25Z" fill="#23659b"/><path d="M1574.87,298.31c.05,3.33-5.18,3.33-5.13,0S1574.92,295,1574.87,298.31Z" fill="#23659b"/><path d="M1574.87,314.56c.05,3.33-5.18,3.33-5.13,0S1574.92,311.23,1574.87,314.56Z" fill="#23659b"/><path d="M1486.73,592.46c.47,8.06.9,12.93.9,12.93-29,9.34-44.6,0-44.6,0s-.81-4-2.07-11C1441.31,594.54,1459.55,603.51,1486.73,592.46Z" fill="#23659b"/><path d="M1551.25,605.39c-29,9.34-44.61,0-44.61,0s-1.06-3.74-2.7-10.18c0,0,16.08,8.32,45.79,0C1550.61,601.58,1551.25,605.39,1551.25,605.39Z" fill="#23659b"/><path d="M1568.66,382.45c-5.71.18,15.06-14.07,21.26-10.59a.91.91,0,0,1-.81,1C1577.41,374.09,1569.64,382.42,1568.66,382.45Z" fill="#e57d61"/><path d="M1577.46,382.78c-4.34-1.85,9.12-5,15.78-6.82a.91.91,0,1,1,.37,1.78C1586.51,379.21,1578.17,382.7,1577.46,382.78Z" fill="#e57d61"/><path d="M1579.61,176.52a.61.61,0,0,1-.4-.14,8.3,8.3,0,0,0-7.1-1.88.66.66,0,0,1-.81-.44.65.65,0,0,1,.44-.8c.16-.06,4.07-1.19,8.27,2.1a.63.63,0,0,1,.11.91A.61.61,0,0,1,1579.61,176.52Z" fill="#c16256"/><path d="M1560.53,178.09a.69.69,0,0,1-.36-.11.65.65,0,0,1-.17-.9c.08-.13,2.11-3.08,5.48-3a.65.65,0,0,1,.63.67.66.66,0,0,1-.68.63c-2.65-.09-4.34,2.35-4.36,2.37A.64.64,0,0,1,1560.53,178.09Z" fill="#c16256"/><path d="M1574.57,200.4a2.53,2.53,0,0,1-2.07-.91c-1-1.31-.34-3.45,1.52-4.89s4.1-1.54,5.11-.24h0c1,1.31.34,3.45-1.52,4.89A5.11,5.11,0,0,1,1574.57,200.4Zm2.48-5.64a3.77,3.77,0,0,0-2.24.87c-1.35,1-1.76,2.45-1.28,3.06s1.94.57,3.29-.47,1.75-2.45,1.28-3.06h0A1.29,1.29,0,0,0,1577.05,194.76Z" fill="#c16256"/></g><g id="_5" data-name="5"><path d="M3111.66,1497l1.12-.59c0,.79,1,3.52,1.76,3.52l33.16.68c.78,0,1.27-1.48,1.27-2.26l2.82-.81c0-5-.4-6.77-2.6-10.61-8.06-10.72,1.56-58.64,1.29-71.15,2-3.43-34.92-.74-35.44-1.55a1.41,1.41,0,0,0-1.41,1.53l4.34,54.76C3119.92,1480.9,3111.94,1487.18,3111.66,1497Z" fill="#f99370"/><path d="M2947.66,1501.75h66.05c5.76-.23,5.72-6.11,4.66-10.67-3.64-16.44,2.79-54.18,4-71.08a5.25,5.25,0,0,0-5.23-5.79c-48.73-.49-32.83-4.4-29,48.18,2.88,18.36-19,21.86-31.52,23.89C2948.33,1486.88,2934.58,1498.1,2947.66,1501.75Z" fill="#f99370"/><path d="M3020.88,1494.9c-.18,3.24-1.78,6.93-5.53,6.85h-68.51c-16.16-6,8-27.43,39.68-27.3C3009,1480.62,3021.64,1463.09,3020.88,1494.9Z" fill="#103663"/><path d="M3146.54,1501.75h-29.28c-14.27-2-4-29.33,14.64-27.35C3150.57,1472,3160.8,1499.83,3146.54,1501.75Z" fill="#103663"/><path d="M2963.17,1492.48a1.45,1.45,0,0,1-1.35-.91c-2.64-6.5-7.38-8.48-7.58-8.57-3.7-5.84,7.05-1.68,10.28,7.48A1.46,1.46,0,0,1,2963.17,1492.48Z" fill="#e8c0a6"/><path d="M2974.48,1491.11a1.46,1.46,0,0,1-1.39-1,20.2,20.2,0,0,0-9-11c-3.35-6.79,9.16.48,11.73,10.18A1.46,1.46,0,0,1,2974.48,1491.11Z" fill="#e8c0a6"/><path d="M2987.35,1489.53a1.44,1.44,0,0,1-1.37-1,26.37,26.37,0,0,0-9.06-12.11C2973.21,1466.41,2993.71,1486.85,2987.35,1489.53Z" fill="#e8c0a6"/><path d="M3142.4,1483.11c-8.14-4.93-20.61-.49-20.66-.13-8.49-1.83,11.59-9,21.39-2.58A1.46,1.46,0,0,1,3142.4,1483.11Z" fill="#e8c0a6"/><path d="M2942,1494.9h78.84a18.13,18.13,0,0,1-2.16,6.85h-71.88A5.09,5.09,0,0,1,2942,1494.9Z" fill="#0f2e54"/><path d="M3146.54,1501.75h-29.28a6.48,6.48,0,0,1-6.49-6.85H3153A6.48,6.48,0,0,1,3146.54,1501.75Z" fill="#0f2e54"/><path d="M2982.92,831.75s-7.17-20.13,9.9-29.91l12.95,6.7Z" fill="#c92828"/><path d="M2994.8,994.13c-64.48,49.21-145.19,38.22-190.93,4l-2.39-23.39c105.51,8.17,131.14-42.42,199-73.13C3000.52,901.59,2995.52,992.55,2994.8,994.13Z" fill="#3a72aa"/><path d="M3156.85,1437c-.11,4.59-.23,9.22-.38,13.92,0,0-24.84,16.39-49.33,4.94-9.59-52.17-30-163.94-50.65-298.71-.26-4-37.38,180.7-24.57,303,0,0-27.55,7.11-52.4-2.21-17.46-62.39-18.07-175.6-5.59-412.47,0,0,74.61-4.2,128.88-31.12C3149.58,1068.58,3162.5,1346.44,3156.85,1437Z" fill="#9358e0"/><path d="M3007,899.17c-3.1-16.35-10.61-45.78,1.69-53,8.67-4.74,20.88,1.26,19.79,12.1-.92-.38,1.39,29.63,4.62,37.53C3058.58,899,2989.59,935.22,3007,899.17Z" fill="#f99370"/><path d="M3028.48,856.86c0,.46,0,.93,0,1.38-.66-.29.4,16.3,2.38,28.14-10.27,6.94-23,6.8-25.4,6.72-1.87-17.42-8.54-39,3.24-47C3016.72,841,3028.41,847.13,3028.48,856.86Z" fill="#e57d61"/><path d="M2996.11,1453.22c-30.68-143.1.53-331,5.22-332.33C3003.73,1122,2976.47,1310.8,2996.11,1453.22Z" fill="#7640cc"/><path d="M3130.87,1455.13c-24.8-157.1-52.5-339.64-49-342.36C3085.44,1113.28,3113.6,1299.27,3130.87,1455.13Z" fill="#7640cc"/><path d="M3044.12,843c.08,11.9-1.63,25.63-9.49,34.84h0c-.32.37-.64.72-1,1.07,0,0,0,0,0,0-11.89,11.29-30.75,13.28-45.81,4.62h0c-12.12-8-17.66-20.64-13.86-31.72,2.61-6.59,8.36-13,9-20.1C2986.8,788.5,3043.85,796.94,3044.12,843Z" fill="#f99370"/><path d="M2998.68,843.31c-1.4-1.83,1.51-4,2.86-2.11S3000,845.19,2998.68,843.31Z" fill="#c16256"/><path d="M2983.51,843.32c-1.4-1.84,1.52-4,2.86-2.12S2984.86,845.2,2983.51,843.32Z" fill="#c16256"/><path d="M3044.12,843c.08,11.9-1.63,25.63-9.49,34.84h0c-.32.37-.64.72-1,1.07,9.32-18.68,6.82-22.53,2.61-35.53-13.74-9.77-13.26-23.12-26.13-23.07a156.51,156.51,0,0,1-23.37-1.7C3001.17,787.88,3044.31,805.67,3044.12,843Z" fill="#e57d61"/><path d="M2990.19,857.76c-2.93-.08-6.7-1.42-3.53-4.48,3-2.35,4.29-9.64,4.31-9.71,3-2.79,0,8.14-3.48,10.77-2.33,2,3.35,2.66,5.45,1.5C2996,856.32,2991.49,858.14,2990.19,857.76Z" fill="#c16256"/><path d="M3129.61,1095c-36.12,27.33-121.81,34.44-157.88,21.39-12.16-5.15-13.86-46.1-12.45-86.32,2.16-53.6,15.23-92.36,40-128.18a44,44,0,0,1,7.7-2.67c-.12,4.89,1,19,26.11-3.42.11.1,7.5-.89,9.81.1,2.4,1.82,29.59,19.51,30.29,22.39,2,8.6,11.23,29.88,21.27,54.7,11.6,29,23.5,58.74,28.61,85.91C3125,1070.16,3136.77,1084.33,3129.61,1095Z" fill="#23659b"/><path d="M3046.17,826.94c-4-34.06-25.11-33-25.11-33h0c-18.13-24.15-58.55-12-41.72,15.1,9.54,16.71,34-1.93,48.38,19.49,5.8,8.61,9.38,13.92,19.43,18.33C3047.15,846.83,3048.47,836.16,3046.17,826.94Z" fill="#c92828"/><path d="M3052.47,847.62c-.41,13.56-17.51,12.85-16.79-.69C3036.09,833.38,3053.18,834.08,3052.47,847.62Z" fill="#f99370"/><path d="M2990.62,867.43c-2.42.24-4.6-1-2.4-1.59.28.07,6.86,1.75,13.76-4.64a.67.67,0,0,1,.95,0C3000.89,866.36,2992.59,867.4,2990.62,867.43Z" fill="#c16256"/><path d="M3042.5,896c-8.27,14.1-44.77,36.06-43.26,5.83a43.65,43.65,0,0,1,7.71-2.68c0,.79-1.49,21.58,26.12-3.42C3033,896,3040.43,894.64,3042.5,896Z" fill="#3a72aa"/><path d="M3031.92,1460.13s-27.55,7.11-52.4-2.21c0,0-1.63-4.76-4.2-14.2,0,0,32,11.93,55.15,0C3030.91,1449.22,3031.4,1454.7,3031.92,1460.13Z" fill="#7640cc"/><path d="M3156.85,1437c-.11,4.59-.23,9.22-.38,13.92,0,0-24.84,16.39-49.33,4.94,0,0-.81-4.29-2.25-12.14C3104.89,1443.72,3131.27,1451.59,3156.85,1437Z" fill="#7640cc"/><path d="M3089.86,910s36.65,29,45,76.58c13,74.07-22.27,114.52-97.67,135a18.56,18.56,0,0,0-12.5-12.3s36.09-27.87,45.18-61.21,4.7-81.43-12.65-100.33C3057.19,947.72,3070.8,916.55,3089.86,910Z" fill="#3a72aa"/><path d="M3064.59,899.63c-8.14-8.79-22.76-9.41-25.3-1.1-8,26.28-19.72,50.07-23.67,57.8a8.63,8.63,0,0,0-4.18-1.19c-18.77-26.81-14.56-51.76-14.56-51.76-11.67-.8-19.31,3.7-23.45,10.8-20.26,7.44-17.81,23.43.71,35.45,4.33,9.53,11.64,18,21.41,22.63-7.09,16.23-15.65,41.89-5.91,46.8,4.39,4.15,15.24,6,15.51-6.08.22-10,.77-25.26,2-34.7a8.43,8.43,0,0,0,3.38-.27s1.44,33.49-4.08,54.44,20.4,17,28.91,10.09c6.68-5.38.83-47.95-8.89-71A80,80,0,0,0,3043.92,958v0C3054.48,947.33,3127.49,906.2,3064.59,899.63Z" fill="#1d3f70"/><rect x="2915.01" y="859.21" width="26.7" height="437.27" transform="matrix(0.59, -0.81, 0.81, 0.59, 330.4, 2806.33)" fill="#eb5648"/><rect x="2999.14" y="1024.88" width="26.7" height="228.88" transform="matrix(0.59, -0.81, 0.81, 0.59, 315.26, 2899.46)" fill="#ce3932"/><circle cx="2621.44" cy="855.25" r="160.51" transform="translate(163.05 2104.14) rotate(-45)" fill="#fff" opacity="0.4"/><path d="M2457.73,913.6a173.18,173.18,0,0,0,23.82,44.89l9.54-9.53,9.59-9.6L2705.54,734.5l19.14-19.14-1.84-1.34a173.13,173.13,0,0,0-43-22.54L2669.33,702l-10.82,10.82h0L2479.08,892.25l-10.85,10.85Z" fill="#fff" opacity="0.4"/><path d="M2497.56,977.25a174.44,174.44,0,0,0,66.84,42.25l10.57-10.58L2585.86,998l178.38-178.39,10.85-10.84,10.62-10.63a171.87,171.87,0,0,0-42.25-66.83l-18.89,18.88L2516.45,958.37l-9.46,9.45Z" fill="#fff" opacity="0.4"/><path d="M2564.39,1019.5c117.7,45.62,253.68-66.52,228.61-192.42-22.4-149.91-224.16-199-312.78-73.23C2411.53,846.21,2457.56,984.61,2564.39,1019.5Zm160.18-269.27c106.59,104.39,4.4,284-138.71,247.81-50.82-11.87-94.4-54.87-106.78-105.79C2441.36,749.54,2619.31,646.46,2724.57,750.23Z" fill="#ce3932"/><path d="M2788.73,996.42c-6.79,5.48-12.79-4-3.3-5l-.13.1C2789,988.57,2792.28,993.78,2788.73,996.42Z" fill="#f99370"/><path d="M2784,993c-8.8,4.75-11.33-7.16-2.8-5.57-.19,0,.81-.2.63-.18C2786.06,985.09,2787.75,991.21,2784,993Z" fill="#f99370"/><path d="M2778.85,989.53l-3.27.63c-4.6.71-4-6-.14-6.47l3.27-.63C2783.31,982.34,2782.7,989.05,2778.85,989.53Z" fill="#f99370"/><path d="M2774.88,985.84l-3.27.63c-4.6.71-4-6-.14-6.47l3.28-.63C2779.34,978.66,2778.73,985.36,2774.88,985.84Z" fill="#f99370"/><path d="M2998.07,1113.68l6.42,4.62-.09.13a32.37,32.37,0,0,1-10.88,10.26,103.83,103.83,0,0,1-13.05,6.78c-6.11,9.16,18.91-1.92,22-2.57l.05.11a151.27,151.27,0,0,1-18.23,13.84c-4.12,11,20-7.47,22.92-9.12l0,0a88.83,88.83,0,0,1-15.62,15.26c-3.18,11.47,19.82-9.24,22-11.77l.08,0a92.13,92.13,0,0,1-10.23,14.16c-1.51,11.27,15.78-9.79,17.5-12.32,1.82-1,10.76-9.45,16.11-21.58,1.75-4-8.95-14.52-12.5-12.3-2.68,1.67-11.31,1.67-13.19,2.22C3007.1,1112.09,3002.58,1112,2998.07,1113.68Z" fill="#f99370"/><path d="M3006.56,838.71a.67.67,0,0,0,.49-1.12,13.39,13.39,0,0,0-10-4.08.67.67,0,0,0-.63.71.69.69,0,0,0,.71.62,12.3,12.3,0,0,1,8.9,3.65A.68.68,0,0,0,3006.56,838.71Z" fill="#c16256"/><path d="M2983.14,836.77a.64.64,0,0,0,.41-.14,9.68,9.68,0,0,1,6.88-1.8.67.67,0,0,0,.77-.55.68.68,0,0,0-.55-.77,11,11,0,0,0-7.93,2.07.68.68,0,0,0-.1.94A.64.64,0,0,0,2983.14,836.77Z" fill="#c16256"/><path d="M3040.37,843c-.47-1.38,3.81-3.12,6.9-1.55,1.58.71,3.69,6.44,1.36,9.65a.67.67,0,0,1-.66-.76,13.06,13.06,0,0,0-.35-6.34.65.65,0,0,1-.17.08c-.19,0-4.46,1.06-5.55,7.15a.74.74,0,0,1-.73.61H3041a.73.73,0,0,1-.6-.86c1.08-6,5-7.81,6.28-8.22a1.54,1.54,0,0,0-.19-.17C3043.61,840.88,3041.44,844.14,3040.37,843Z" fill="#c16256"/></g><g id="_4" data-name="4"><path d="M1180.25,1498l-1.08-.57c0,.76-.94,3.41-1.7,3.41l-32.13.66c-.76,0-1.23-1.44-1.23-2.2l-2.74-.78c-.22-9.91,7.85-16.31,5.89-26.64,0,0-10.19-183.68-7.13-265.34.74-19.82,78.55-32.86,77.61-22.49-7,76.63-43.6,288.3-43.6,288.3a28,28,0,0,0,3.26,15.87C1179.52,1491.9,1180.26,1493.14,1180.25,1498Z" fill="#f99370"/><path d="M1319.52,1502.57h-64a5.09,5.09,0,0,1-5.08-5.37c7.08-32.45-25.37-199.1-25.21-313.62,0-3,69.36,5.09,72.32,39.76,5.34,62.44-17.19,241.1-17.19,241.1-2.15,18.71,17.79,20.67,30.53,23.15,5.06,1.27,10.35,3.24,12.82,7A5.09,5.09,0,0,1,1319.52,1502.57Z" fill="#f99370"/><path d="M1135.31,1439.91c.33,10.77.55,17.16.55,17.16,26.6,11,54.1.69,54.1.69l1.85-15.82,29.25-250c9.76,84.15,14.65,203.39,16.21,247.66.39,11,.57,17.42.57,17.42,3.56.82,7,1.45,10.36,1.93,25.44,3.6,43.6-1.93,43.6-1.93s.75-6.26,1.88-17.42c5-49.76,17.75-197,6.15-322.19-6.09-65.92-161-36.71-161-36.71s-3.83,24.47-6,179.79C1132,1319.51,1134.24,1404,1135.31,1439.91Z" fill="#eb5648"/><path d="M1277.85,1450.24l-5.85-.61c18.78-181.2.2-324.3,0-325.73l5.83-.77C1278,1124.56,1296.71,1268.31,1277.85,1450.24Z" fill="#ce3932"/><path d="M1166.49,1451.34l-5.85-.65c9.37-85.55,28-322.9,28.24-325.28l5.87.46C1194.56,1128.26,1175.87,1365.69,1166.49,1451.34Z" fill="#ce3932"/><path d="M1230.76,974.88c124.11,10,185.08-106,33.67-129.89-6.81-.55-18.16-3.25-18.87,6.68a7.81,7.81,0,0,0,4.11,7.14c15,9.11,62.2,26.76,55.08,46.34-4.75,13.07-49.73,15.11-73.19,17.52C1197.4,922.3,1196.63,974.21,1230.76,974.88Z" fill="#f99370"/><path d="M1299.84,1117.47s-4.35,7.47-16.45,13.2-34.45,15.68-43,15.29-8.17-10.42-15.11-11.28-3.5,8-12.09,11.29-38.87-.45-77.28-20.33v-21.89Z" fill="#f4d4be"/><path d="M1228.3,921.37l38.84,41.53,10.71,11.45c18.23.83,42.44-8.17,60.35-22.28l0,0c21.37-16.86,33.76-41,16.22-64.31-32.24-42.89-90-42.74-90-42.74-13.37,5.21-11.24,16.62-11.24,16.62,61.75,30.69,51,56.13,21.73,54.56S1228.3,921.37,1228.3,921.37Z" fill="#3a72aa"/><path d="M1267.14,962.9l10.71,11.45c18.23.83,42.44-8.17,60.35-22.28-20.14,12.42-50.74,18.52-54.81,14.65s-14.71-13.21-14.71-13.21Z" fill="#23659b"/><path d="M1137,1114.91q8.81,2.47,17.28,4.39c86.37,19.62,145.51-1.84,145.51-1.84-4.48-66.65-8.34-170.7-62.92-193.86-9-4.26-25.63-.88-34.15-1.28-13.67,9.77-25.11,26.75-34.44,46.93C1145.82,1018,1135.77,1085.38,1137,1114.91Z" fill="#3a72aa"/><path d="M1248.58,1495.94a19.54,19.54,0,0,0,.59,3,5,5,0,0,0,4.77,3.6h66.38a4.93,4.93,0,0,0,4.68-6.52s0-.08,0-.11c-2.58-7.25-10.66-18.09-42-19.86a15.87,15.87,0,0,0-2.49.17c-2.36.57-15,1.67-28.22-.17a10.1,10.1,0,0,0-2.63,3.91C1248.3,1483.88,1247.86,1490.12,1248.58,1495.94Z" fill="#1d3f70"/><path d="M1146.46,1502.57h28.37a6.29,6.29,0,0,0,6.3-6.52v-.11c-.35-7.8-3.65-19.7-20.47-19.86s-20.14,12-20.48,19.86v.13A6.27,6.27,0,0,0,1146.46,1502.57Z" fill="#1d3f70"/><path d="M1325,1495.94h-76.38a17.39,17.39,0,0,0,2.09,6.63h69.65a4.93,4.93,0,0,0,4.68-6.52S1325,1496,1325,1495.94Z" fill="#395b96"/><path d="M1146.46,1502.57h28.37a6.29,6.29,0,0,0,6.3-6.52v-.11h-40.95v.13A6.27,6.27,0,0,0,1146.46,1502.57Z" fill="#395b96"/><path d="M1250.24,858.84s-7.78-1.64-9.8-5.89c-5-10.57-16.84-23.57-16.84-23.57s4.16-3.22,11-1.11,20.31,16,20.31,16Z" fill="#f99370"/><path d="M1170.88,1159.71c-2.82,2.25-7-3.68-10.26-4.18a41,41,0,0,0,2.71,10,178.77,178.77,0,0,0,12,15c1.06,9.43-14.22-9-16.45-10.69l-.1.05a131.16,131.16,0,0,0,8.8,17.83c-.9,10.24-13-13.74-14.45-16H1153a75.49,75.49,0,0,0,6.14,17.88c-2.17,10.06-11.91-14.85-12.67-17.74h-.08a76.76,76.76,0,0,0,2.31,14.89c-3.42,9.24-8.49-13.66-8.84-16.36-1-1.5-4.67-11.49-3.93-22.9.25-3.74,13.56-7.5,15.47-4.39,1.44,2.33,7.82,5.69,9.09,6.85C1163.38,1151.76,1172.29,1155.92,1170.88,1159.71Z" fill="#f99370"/><path d="M1133.46,1145.94v0q1.61,2,3.24,3.9l14.73-6.83s-.37-.87-1-2.53l0-.07c-3.32-9.28-13.39-42.6-6-87,7.87-47.52,45.47-74.81,50.39-121.89.3-2.84,7.9-6.2,8-9.21,0,0-8.94,3.08-11.09,3.37-10.94,1.51-42.35,8.08-65.08,46.83C1084,1045.19,1102,1106.86,1133.46,1145.94Z" fill="#f99370"/><path d="M1137,1114.91q8.81,2.47,17.28,4.39c-3.09-21.79-2.13-50.48,1.45-71,4-23.19,30.45-68.21,30.45-68.21l-17.9-10.87C1145.82,1018,1135.77,1085.38,1137,1114.91Z" fill="#23659b"/><path d="M1133.46,1145.94v0a33.93,33.93,0,0,1,17-5.46l0-.07c-.66-2.36-17.68-65,5.32-113.52,21.46-45.27,54.23-62.45,47-92-.67-2.73,1.24-9.7,0-12.61-10.94,1.51-56.82,10-79.55,48.79C1080.58,1043.79,1102,1106.86,1133.46,1145.94Z" fill="#3a72aa"/><path d="M1240.44,853s3.62-20.42-14.3-27l-11.33,8.5Z" fill="#1d3f70"/><path d="M1228.3,921.37c.25-1.89.4-3.93.49-6.06.48-12.32-1.43-27.59-2.43-33.3a7.44,7.44,0,0,0-.55-2.29c-.09-.36-.19-.72-.31-1.07a11.64,11.64,0,0,0-7.38-7.77h0a14,14,0,0,0-14.13,3.39l-.21.23a11.54,11.54,0,0,0-2.9,9.84l.09.56c0,.26.1.51.16.76.59-.39,2.25,15.66,2.26,27.32a50.08,50.08,0,0,1-.63,9.34C1178.85,929.49,1239,937.88,1228.3,921.37Z" fill="#f99370"/><path d="M1200.87,884.34l.09.56c0,.26.1.51.16.76.59-.39,2.25,15.66,2.26,27.32,11,5,23.17,2.79,25.41,2.33.48-12.32-1.43-27.59-2.43-33.3-.3-1.34-.51-2.13-.55-2.29-.09-.36-.19-.72-.31-1.07a12.69,12.69,0,0,0-7.38-7.77h0a12.69,12.69,0,0,0-7.64-.51,12.56,12.56,0,0,0-6.49,3.9l-.21.23A12.69,12.69,0,0,0,1200.87,884.34Z" fill="#e57d61"/><path d="M1183.66,873.6c1.84,11.41,5.7,24.28,14.71,31.82h0a28.5,28.5,0,0,0,12.78,5.88c26.37,7.62,58-23.77,37-46-7-6.44-8.62-17.14-13.63-24.14C1212.22,811.14,1177.5,842.6,1183.66,873.6Z" fill="#f99370"/><path d="M1227.22,866.57a1.73,1.73,0,1,0-2.32.75A1.73,1.73,0,0,0,1227.22,866.57Z" fill="#c16256"/><path d="M1241.74,864.13a1.73,1.73,0,1,0-2.32.75A1.72,1.72,0,0,0,1241.74,864.13Z" fill="#c16256"/><path d="M1183.66,873.6c.13.94.27,1.88.45,2.82s.34,1.73.54,2.6a2.17,2.17,0,0,1,.07.33c.22.91.45,1.79.66,2.66.16.58.32,1.15.49,1.72s.38,1.26.58,1.88a64.49,64.49,0,0,0,2.28,6.22c.56,1.3,1.16,2.55,1.79,3.74a32.28,32.28,0,0,0,7.85,9.85h0a24.79,24.79,0,0,0,2.34,1.73c-6.86-6.81-10.83-21.41-10.83-21.41l1.61-12.36c11.07-11.22,6.31-23.84,6.31-23.84,18.52,5.2,24.75-6.23,24.75-6.23,5.86.76,12-2.2,12-2.2-.51-.76-1-1.48-1.56-2.17a29.48,29.48,0,0,0-4.16-4.37,22.84,22.84,0,0,0-4.22-2.82,20.62,20.62,0,0,0-3.07-1.3l-.31-.09a23.16,23.16,0,0,0-7.87-1,32.4,32.4,0,0,0-6,.85,27.36,27.36,0,0,0-12.75,7c-.14.14-.27.28-.42.41a34.51,34.51,0,0,0-6.43,9A47,47,0,0,0,1183.66,873.6Z" fill="#e57d61"/><path d="M1189.34,843.87s13.5,6.12.5,26.87l-8.46,7S1162.2,847.54,1189.34,843.87Z" fill="#1d3f70"/><path d="M1236.25,879.15c2.3,0,4.81-1,5.4-2.4.2-.45.46-1.62-1.32-2.58-3.27-1.77-5.66-8.53-5.68-8.6a.66.66,0,0,0-.84-.4.65.65,0,0,0-.4.83c.11.3,2.59,7.31,6.3,9.32.42.23.89.57.74.92-.42,1-3.53,2.09-5.72,1.39a.65.65,0,0,0-.4,1.24A6.32,6.32,0,0,0,1236.25,879.15Z" fill="#c16256"/><path d="M1176.41,879.37c1.16,5.48,5.67,9.16,10.08,8.23s7-6.13,5.89-11.6-5.67-9.17-10.08-8.24S1175.25,873.89,1176.41,879.37Z" fill="#f99370"/><path d="M1180.53,882.05a.63.63,0,0,0,.19,0,.66.66,0,0,0,.44-.82c-1.18-3.84-1.14-6.49.11-7.65,1.67-1.55,5.09-.24,5.12-.23a.66.66,0,1,0,.48-1.22c-.17-.06-4.22-1.61-6.48.49-1.67,1.54-1.84,4.57-.49,9A.66.66,0,0,0,1180.53,882.05Z" fill="#c16256"/><path d="M1186.63,881.13a.58.58,0,0,0,.26,0,.64.64,0,0,0,.34-.85c-.09-.23-2.4-5.53-7.4-5.86a.66.66,0,0,0-.69.61.65.65,0,0,0,.61.7c4.19.28,6.26,5,6.28,5.06A.65.65,0,0,0,1186.63,881.13Z" fill="#c16256"/><path d="M1188.92,823.86a13.32,13.32,0,0,1,2.44-2.42c9.19-7.12,13.53-19.14,13.53-19.14s5.79,7.29,8,15.85a96.33,96.33,0,0,0,9.76-14.12,34.68,34.68,0,0,1,5.14,12.37,31.2,31.2,0,0,1,14.18-7.35c8.79,24.54-11.13,28.91-19.88,29.66-8.75,10.08-24.12,11-32.8,7l-10.18,13.15C1163,834.05,1180.82,826.09,1188.92,823.86Z" fill="#1d3f70"/><path d="M1221.06,1192c9.76,84.15,14.65,203.39,16.21,247.66.39,11,.57,17.42.57,17.42,3.56.82,7,1.45,10.36,1.93h0s-.16-6.3-.45-16.84c-1.37-49.26-5.57-191.06-9.29-214.14C1234,1200,1221.06,1192,1221.06,1192Z" fill="#ce3932"/><path d="M1237.27,1439.65c.39,11,.57,17.42.57,17.42,3.56.82,7,1.45,10.36,1.93,25.44,3.6,43.6-1.93,43.6-1.93s.75-6.26,1.88-17.42c0,0-15.89,8.33-45.9,2.5Q1242.8,1441.18,1237.27,1439.65Z" fill="#ce3932"/><path d="M1135.31,1439.91c.33,10.77.55,17.16.55,17.16,26.6,11,54.1.69,54.1.69l1.85-15.82s-28.85,11.09-56.49-2Z" fill="#ce3932"/><path d="M1228.3,921.37a16.12,16.12,0,0,1,10.92-2.91s8.47,14.21-4.41,21.73c0,0-2.13-6.64-8.7-7.85,0,0,2,6.31,1.3,10.18,0,0-17.65-.69-29-10a34.32,34.32,0,0,1-6.78-8,15,15,0,0,1,11.13-2.14s10.39,8.26,20.2,6.93C1231.21,928.13,1228.3,921.37,1228.3,921.37Z" fill="#f4d4be"/><path d="M1233.08,891.48a5,5,0,0,1-4-2.7h0c-1.31-2.26-1-4.89.7-5.87s4.13.07,5.44,2.33,1,4.9-.71,5.87A2.77,2.77,0,0,1,1233.08,891.48Zm-2.94-3.33c.94,1.63,2.64,2.49,3.71,1.87s1.18-2.52.24-4.15-2.64-2.49-3.71-1.87-1.18,2.52-.24,4.15Z" fill="#c16256"/><path d="M1218.62,864.69h0a.64.64,0,0,1-.61-.66,12.08,12.08,0,0,1,6.61-10.65.63.63,0,0,1,.83.32.64.64,0,0,1-.32.83,10.84,10.84,0,0,0-5.86,9.56A.63.63,0,0,1,1218.62,864.69Z" fill="#c16256"/><path d="M1240.74,858.88a.64.64,0,0,1-.48-.21s-3.6-4.08-8.14-4.08a.63.63,0,1,1,0-1.26c5.13,0,8.94,4.32,9.1,4.51a.63.63,0,0,1-.48,1Z" fill="#c16256"/></g><g id="_3" data-name="3"><path d="M771.8,1498.09l-38.93.52c0-4.81.4-6.55,2.52-10.27,7.82-10.39-1.51-56.81-1.24-68.94-1.81-3.31,33.8-.71,34.37-1.49a1.37,1.37,0,0,1,1.37,1.48l-4.21,53C763.79,1482.51,771.53,1488.6,771.8,1498.09Z" fill="#f99370"/><path d="M915.55,1502.72H851.49a5.11,5.11,0,0,1-5.09-5.38,40.63,40.63,0,0,1,.57-5,85,85,0,0,0,1.21-16.16c0-2.59-.2-5.18-.46-7.76l-4.61-45a5.08,5.08,0,0,1,5.06-5.6h28.28a5.09,5.09,0,0,1,5,5.72l-5.14,40.95a17.81,17.81,0,0,0,13.42,19.49c6.26,1.56,12.6,2.49,17.14,3.66l1.74.47h0c4.81,1.37,8.79,3.17,11.09,6.55A5.1,5.1,0,0,1,915.55,1502.72Z" fill="#f99370"/><path d="M844.53,1496.08c.17,3.14,1.73,6.71,5.37,6.64h66.45a4.93,4.93,0,0,0,4.65-6.64c-2.58-7.25-11.74-18-43.14-19.82a112.31,112.31,0,0,1-29.68,0A32.25,32.25,0,0,0,844.53,1496.08Z" fill="#103663"/><path d="M738,1502.72h28.41a6.28,6.28,0,0,0,6.3-6.53v-.11c-.36-7.8-3.66-19.7-20.5-19.86s-20.16,12-20.5,19.86v.13A6.29,6.29,0,0,0,738,1502.72Z" fill="#103663"/><path d="M900.51,1493.73a1.39,1.39,0,0,1-.53-.1,1.42,1.42,0,0,1-.78-1.84c3-7.46,8.69-9.76,8.93-9.86a1.41,1.41,0,0,1,1.83.8,1.39,1.39,0,0,1-.79,1.82h0c-.19.08-4.8,2-7.35,8.3A1.41,1.41,0,0,1,900.51,1493.73Z" fill="#e8c0a6"/><path d="M889.54,1492.41a1.52,1.52,0,0,1-.42-.06,1.42,1.42,0,0,1-.93-1.77,22.14,22.14,0,0,1,10.07-12.35,1.39,1.39,0,0,1,1.9.59,1.41,1.41,0,0,1-.59,1.91,19.58,19.58,0,0,0-8.68,10.69A1.42,1.42,0,0,1,889.54,1492.41Z" fill="#e8c0a6"/><path d="M877.05,1490.88a1.48,1.48,0,0,1-.46-.08,1.41,1.41,0,0,1-.87-1.8,27.86,27.86,0,0,1,9.89-13.15,1.41,1.41,0,1,1,1.56,2.35,25.45,25.45,0,0,0-8.79,11.73A1.41,1.41,0,0,1,877.05,1490.88Z" fill="#e8c0a6"/><path d="M742,1484.65a1.4,1.4,0,0,1-.71-2.62c9.52-5.57,21.42-.29,21.92-.07a1.41,1.41,0,1,1-1.17,2.57c-.11,0-11.08-4.9-19.32-.07A1.46,1.46,0,0,1,742,1484.65Z" fill="#e8c0a6"/><path d="M921,1496.08H844.53a17.5,17.5,0,0,0,2.1,6.64h69.72a4.93,4.93,0,0,0,4.69-6.53Z" fill="#0f2e54"/><path d="M738,1502.72h28.41a6.28,6.28,0,0,0,6.3-6.53v-.11h-41v.13A6.29,6.29,0,0,0,738,1502.72Z" fill="#0f2e54"/><path d="M727.06,1466.52s32,7.35,48.52-.55c0,0,.68-3.94,1.88-11,7-41.39,24.84-163.55,38.24-239.58,0,0,13.1,118.27,21,239.58.43,6.53.67,10.43.64,11a92.32,92.32,0,0,0,9.78,2.51c10.4,2.1,26.75,3.77,37.32-3.29,0,0,.41-3.59,1.08-10.2,4.77-47.47,18.7-173.93-8.61-322.11,0,0-80.86,18.94-140.46,1.92,0,0-12.29,126.41-9.09,320.19A92.33,92.33,0,0,1,727.06,1466.52Z" fill="#1d3f70"/><path d="M872.17,1460.38H872a1.9,1.9,0,0,1-1.77-2c12-171.25-13.08-330.77-13.34-332.36a1.91,1.91,0,0,1,3.77-.6c.25,1.6,25.44,161.55,13.37,333.23A1.91,1.91,0,0,1,872.17,1460.38Z" fill="#103663"/><path d="M752.26,1460.38h-.08a1.92,1.92,0,0,1-1.83-2c7.4-176.08,33.9-332.61,34.17-334.17a1.9,1.9,0,1,1,3.75.64c-.26,1.55-26.73,157.87-34.11,333.69A1.9,1.9,0,0,1,752.26,1460.38Z" fill="#103663"/><path d="M727.06,1466.52s32,7.35,48.52-.55c0,0,.68-3.94,1.88-11,0,0-24.07,5.25-50.05,0A61.71,61.71,0,0,1,727.06,1466.52Z" fill="#103663"/><path d="M838.56,966.84c23.91,25.53,37.89,58.59,48.63,91.29,9.2,31.64,24.81,62.35,48.81,85.36,7.72,5.84-.93,18.18-9,12.8-14.93-9.61-27.82-22-39.37-35.44-31.58-35.46-43.36-86.27-81.54-116.21,0,0,.15.17.18.2C781.52,983.61,813.62,945.85,838.56,966.84Z" fill="#f99370"/><path d="M921.13,1126.82s-1,9.17-13.76,14.57c-76.44-54.62-87.91-115-80-182.78C875.86,965.36,895,1090.58,921.13,1126.82Z" fill="#eb5648"/><path d="M828.4,863.4s7.46-2,9.94,4.83-3,9.66.65,16,6.41,8,3.78,12.59-6.52,4.13-6.41,10.68c0,0-14-22.24-13.69-33.8S828.4,863.4,828.4,863.4Z" fill="#8c4225"/><path d="M889.64,1127.19a258.36,258.36,0,0,1-32.11-33l-5.06-100s21.21,29.93,30.64,75.17C889.38,1099.34,890,1118,889.64,1127.19Z" fill="#d64343"/><path d="M815.16,954.31c.24-1.8.39-3.74.47-5.77.46-11.75-1.36-26.31-2.32-31.75-.26-1.48-.45-2.28-.52-2.18-.09-.35-.18-.69-.3-1a11,11,0,0,0-7-7.4h0A13.35,13.35,0,0,0,792,909.42l-.2.22A11,11,0,0,0,789,919c0,.18,0,.36.09.54s.09.48.14.72c.57-.37,2.15,14.94,2.17,26a48.58,48.58,0,0,1-.6,8.91C768,962.06,836.58,984.53,815.16,954.31Z" fill="#f99370"/><path d="M789,919c0,.18,0,.36.09.54s.09.48.14.72c.57-.37,2.15,14.94,2.17,26,10.45,4.75,22.1,2.66,24.23,2.23.46-11.75-1.36-26.31-2.32-31.75-.28-1.28-.49-2-.52-2.18-.09-.35-.18-.69-.3-1a12,12,0,0,0-7-7.4h0A12.11,12.11,0,0,0,792,909.42l-.2.22A12.09,12.09,0,0,0,789,919Z" fill="#e57d61"/><path d="M825.65,940.69c-10.65,6.49-24.36,5.67-34.27.78a27.2,27.2,0,0,1-10.46-8.4h0c-29.8-49.44,40.41-102.65,51.11-38.73C836.43,912.12,848.37,925.59,825.65,940.69Z" fill="#f99370"/><path d="M822.42,925.21l-12.07-10.55s-2.72,7.34,2.24,10.76C817.34,928.69,822.42,925.21,822.42,925.21Z" fill="#f9f8f3"/><path d="M816.62,903.85a1.65,1.65,0,1,0-2.33.16A1.66,1.66,0,0,0,816.62,903.85Z" fill="#c16256"/><path d="M830.62,905a1.65,1.65,0,1,0-2.32.16A1.65,1.65,0,0,0,830.62,905Z" fill="#c16256"/><path d="M822.26,925.81a.62.62,0,0,0,.57-1.07l-12.07-10.55a.63.63,0,0,0-.88.06.62.62,0,0,0,.06.88L822,925.68A.6.6,0,0,0,822.26,925.81Z" fill="#c16256"/><path d="M829.59,883.84s-6.85,2.7-12.48-.76-8.57-2.15-9.63,2.78-9.6,1.26-11.23,3.28-1.5,6.7-4.26,9.17-13.72,3.59-13.72,3.59L777.4,913s-.26,15.64,5.29,22.18a25.76,25.76,0,0,1-1.77-2.14h0a30.86,30.86,0,0,1-5-10.93c-.31-1.24-.57-2.54-.79-3.88a63,63,0,0,1-.67-6.28c0-.61-.13-3-.15-3.57,0-.85,15.52-37.19,18.47-38.95.17-.09,34.8,8.35,35.62,10.2C828.74,880.41,829.44,883.37,829.59,883.84Z" fill="#e57d61"/><path d="M822.05,917.58c2.13.53,4.69.19,5.56-1,.29-.38.8-1.4-.62-2.7-2.61-2.39-3.26-9.2-3.27-9.27a.61.61,0,0,0-.68-.56.62.62,0,0,0-.56.68c0,.29.7,7.35,3.66,10.07.34.31.69.74.48,1-.62.81-3.75,1.11-5.62,0a.62.62,0,0,0-.66,1.06A6.21,6.21,0,0,0,822.05,917.58Z" fill="#c16256"/><path d="M736.5,1134.8s-5.22,4.27-1.23,12c5.22,10.09,75,22.94,89.8,20.59,4.5-.71,7.87-9.5,8.17-13.22,0,0,7.23,11.16,14.3,10.65s28.59-12.73,31-21.09.68-13,.68-13Z" fill="#e8c0a6"/><path d="M736.5,1134.8c1.14,6.64,56,17.45,82.86,15.09,42.71-3.76,49.33-11.05,57.6-17,9.92-7.15,6.54-31-.93-67.48-6.32-30.83-16.47-62.05-27.75-78A128,128,0,0,0,828.7,965.6c-7-6.17-12.26-9.64-13.53-11.28h0c.18.71,4.69,19.46-24.38.89l-8.94,1.59C742.23,998.42,725.7,1071.93,736.5,1134.8Z" fill="#eb5648"/><path d="M828.41,879.65s6.73-5,2.46-11.06-2.18-12.93-10-13.65-10.83-.52-18.44-4.77S786,852,785,857.26s-12,2.49-15.33,9.07-2.28,9.08-3,12.11-11.32,4.58-11.27,12.27,6.39,8.1,6.4,13-5.56,12-.87,15.91c7,5.86,15.07,2.48,15.07,2.48s-5.16-21.48,5.14-23.11c5-.79,10.11-2.28,10.2-9.43s9.56-2.55,12.79-5.46,2.58-7.52,7.16-7.36S817.35,882.87,828.41,879.65Z" fill="#8c4225"/><polygon points="910.43 1047.77 881.45 1048.92 899.33 994.1 928.31 992.96 910.43 1047.77" fill="#163356"/><polygon points="896.81 991.58 899.33 994.1 881.45 1048.92 878.93 1046.4 896.81 991.58" fill="#2e619e"/><polygon points="925.79 990.44 928.31 992.96 899.33 994.1 896.81 991.58 925.79 990.44" fill="#2e619e"/><path d="M884.61,1035c.85-.52,1.84-1.17,2.75-1.8s1.84-1.31,2.75-2c1.8-1.37,3.55-2.81,5.23-4.32a62.83,62.83,0,0,0,4.73-4.79,40.31,40.31,0,0,0,3.91-5.36l0-.07a2.16,2.16,0,0,1,3.82,2,45.11,45.11,0,0,1-3.62,6.58,69.91,69.91,0,0,1-4.5,5.89q-2.41,2.79-5.05,5.36c-.88.86-1.77,1.7-2.69,2.52s-1.82,1.61-2.88,2.46a4,4,0,1,1-4.93-6.18,3.6,3.6,0,0,1,.4-.28Z" fill="#f99370"/><path d="M887.8,1037.12l.27-.08.35-.12.74-.27c.5-.18,1-.42,1.5-.63,1-.47,2-1,3-1.54a37.16,37.16,0,0,0,5.56-3.91,38.56,38.56,0,0,0,4.85-4.88,43.11,43.11,0,0,0,4-5.69l.06-.1a2.16,2.16,0,0,1,3.81,2,48.62,48.62,0,0,1-3.68,6.85,44.13,44.13,0,0,1-4.83,6.2,44.66,44.66,0,0,1-5.9,5.32c-1.06.8-2.18,1.55-3.33,2.27-.59.34-1.16.7-1.78,1-.3.17-.62.33-.94.49l-.5.23-.59.26-1.35.53a4.14,4.14,0,0,1-3-7.71A4.25,4.25,0,0,1,887.8,1037.12Z" fill="#f99370"/><path d="M888.79,1041.81c.9-.35,2-.87,3-1.37s2-1.07,3.05-1.63a62.06,62.06,0,0,0,5.85-3.78,50.4,50.4,0,0,0,5.34-4.43,43.35,43.35,0,0,0,4.61-5.16l.08-.09a2.16,2.16,0,0,1,3.55,2.45,47.75,47.75,0,0,1-4.41,6.33,57,57,0,0,1-5.27,5.6,69.4,69.4,0,0,1-5.91,4.92c-1,.76-2.08,1.51-3.16,2.22s-2.12,1.38-3.41,2.09a4,4,0,0,1-3.82-6.92,3.42,3.42,0,0,1,.43-.21Z" fill="#f99370"/><path d="M888.91,1046.78c.37-.1.92-.28,1.39-.44s1-.35,1.49-.55c1-.38,2-.8,2.94-1.24a50.2,50.2,0,0,0,5.63-3.06,37.36,37.36,0,0,0,5.09-3.82,30.78,30.78,0,0,0,4.25-4.66l.08-.11a2.16,2.16,0,0,1,3.6,2.36,35,35,0,0,1-4.19,6,43.33,43.33,0,0,1-5.21,5.11,55.86,55.86,0,0,1-5.89,4.27c-1,.64-2.07,1.27-3.15,1.85-.53.29-1.07.58-1.63.85s-1.08.54-1.77.83l-.06,0a4,4,0,1,1-3.1-7.28A5.52,5.52,0,0,1,888.91,1046.78Z" fill="#f99370"/><path d="M871.84,1047.92s2.7-11.86,12.35-15.32,11.31-4.74,11.31-4.74l13.85,13s-8.47,12-25.69,20.53Z" fill="#f99370"/><path d="M871.84,1047.92s4.4-18.43,14.18-23.35l-2.73,8.39Z" fill="#f99370"/><path d="M797.1,999.44c-7,20.85-17.66,52-6.88,72,25.39,22.71,60-2.59,79.39-22.4,7.58-11.85,24.63-2.7,17.27,9.59a160.49,160.49,0,0,1-18.75,21.77c-26.38,28.1-71.71,42.6-103.51,14.22-27.21-28.74-20.85-72.34-15.85-107.88C757,954.16,805.81,966.92,797.1,999.44Z" fill="#f99370"/><path d="M871.84,1077.5a87.71,87.71,0,0,1-6.48,7.82h0c-21.91,23.57-60.29,40.15-92.94,20-36.17-22.38-44.08-70.89-36-103,10.31-40.89,45.44-45.45,45.44-45.45s23.77,18.85,24.19,33.19-12.9,34.65-7.12,65.45c4.44,23.6,37.84,12.44,53.23,5.93h0c4.71-2,7.73-3.55,7.73-3.55C861.43,1073.26,871.84,1077.5,871.84,1077.5Z" fill="#eb5648"/><path d="M781.85,956.81a11.16,11.16,0,0,0,2.06,5.2,25.37,25.37,0,0,0,6.64,6.22c8.84,6,21.21,9.46,21.21,9.46l3.41-10.08c4.38,1.08,8.23,7.2,8.23,7.2,3.58-3.29,4.94-6.52,5.3-9.21a11.32,11.32,0,0,0-1.29-7,14,14,0,0,0-12.24-4.3h0c.18.71,4.69,19.46-24.38.89C787.39,953.65,781.85,956.81,781.85,956.81Z" fill="#e8c0a6"/><path d="M957.58,1145.8c-1.63,3.46-7.71.06-10.94,1.29a43.32,43.32,0,0,0,7.41,7.6,181.84,181.84,0,0,0,17.87,7.51c5.72,7.88-16.77-1-19.55-1.49l-.06.09a134.87,134.87,0,0,0,16.6,11.6c4,9.52-17.93-5.88-20.56-7.25l0,0a78.52,78.52,0,0,0,14.35,13c3.21,10-17.84-7.47-19.9-9.63l-.07,0a80.88,80.88,0,0,0,9.54,12.15c1.73,9.91-14.29-8.1-15.9-10.27-1.65-.83-10.05-8-15.2-18.56-1.69-3.46,8.39-13.31,11.62-11.48,2.42,1.38,9.25,1.31,10.93,1.73C947.56,1142.48,956.34,1141.53,957.58,1145.8Z" fill="#f99370"/><path d="M871.84,1077.5a87.71,87.71,0,0,1-6.48,7.82h0c-15.49-6.89-13.24-23.57-13.19-23.94h0c4.71-2,7.73-3.55,7.73-3.55C861.43,1073.26,871.84,1077.5,871.84,1077.5Z" fill="#d64343"/><path d="M921.13,1126.82s-1,9.17-13.76,14.57c0,0-2.45-1.74-6.49-4.9a30.73,30.73,0,0,0,16.86-15.18Q919.46,1124.37,921.13,1126.82Z" fill="#d64343"/><path d="M817.94,1070.53a30,30,0,0,1-10.19-1.49c-15.08-5.57-10.7-41.07-10.5-42.58a1.25,1.25,0,0,1,1.41-1.09,1.27,1.27,0,0,1,1.09,1.41c0,.35-4.34,35,8.88,39.9,13.72,5.07,45.12-5.92,45.43-6a1.26,1.26,0,1,1,.84,2.37C853.84,1063.4,833.47,1070.53,817.94,1070.53Z" fill="#d64343"/><path d="M804.46,1114.88a63.23,63.23,0,0,1-7.82-.48c-48-6-60.85-59.59-61-60.13a1.26,1.26,0,1,1,2.46-.56c.12.52,12.58,52.44,58.83,58.19,39.78,4.93,69.29-31.11,69.58-31.48a1.26,1.26,0,1,1,2,1.58C868.21,1082.35,841.62,1114.88,804.46,1114.88Z" fill="#d64343"/><path d="M770.59,904c.25,5.58,4.08,9.94,8.57,9.75s7.93-4.88,7.69-10.46-4.08-10-8.57-9.75S770.35,898.38,770.59,904Z" fill="#f99370"/><path d="M774.45,907.28a.66.66,0,0,1-.65-.56c-.6-4.58.05-7.54,2-8.78,2.57-1.7,6.3.49,6.46.58a.65.65,0,0,1,.22.9.64.64,0,0,1-.89.22s-3.19-1.86-5.08-.61c-1.42.94-1.89,3.53-1.36,7.51a.67.67,0,0,1-.57.74Z" fill="#c16256"/><path d="M780.6,907.38a.65.65,0,0,1-.63-.5s-1.28-5-5.36-6a.66.66,0,0,1-.48-.79.65.65,0,0,1,.78-.48c4.87,1.14,6.27,6.73,6.33,7a.65.65,0,0,1-.48.78Z" fill="#c16256"/></g><g id="_2" data-name="2"><path d="M1787.54,847.16s-66.09,8.56-39.36,166.76H1844S1849.1,861.53,1787.54,847.16Z" fill="#163260"/><path d="M1997.23,1251.68,1904.06,1286a3.09,3.09,0,0,1-4-1.84c.91-2-31.59-75.91-24.93-75.57.09-.25,93.33-34.25,93.52-34.46a3.1,3.1,0,0,1,4,1.84l26.42,71.75A3.09,3.09,0,0,1,1997.23,1251.68Z" fill="#8a9edd"/><path d="M1997.23,1251.68,1904.06,1286a3.09,3.09,0,0,1-4-1.84c.87-1.83-31.56-76-24.93-75.57l.39.07s29.86,70.66,122.32,36.62l.37.2C1999.24,1247.53,2000.05,1250.69,1997.23,1251.68Z" fill="#7689d6"/><rect x="1890.94" y="1194.07" width="93.37" height="71.05" transform="translate(-305.52 745.23) rotate(-20.21)" fill="#fff"/><path d="M1993.71,1246.8l-87.62,32.26-19.85-53.92c15.14,18.07,47.84,41.95,107.45,21.61Z" fill="#f5faff"/><path d="M1998.34,1220.06c-2.08-5.63-6.24-17-8.31-22.58-1-3-5.47,0-7.27.41l-2.89-7.83a2.12,2.12,0,0,0-2.72-1.26l-4.22,1.56c-1.5.4-3.51,1.36-2.77,3.28l15.55,42.23c.67,1.9,2.83,1.39,4.24.7,1.59-.89,6.63-1.34,5.47-4.28l-2.88-7.84C1994.16,1223.57,1999.52,1223,1998.34,1220.06Zm-8.6-11.13a1.38,1.38,0,0,1,1,2.59A1.38,1.38,0,0,1,1989.74,1208.93Z" fill="#fcb4b4"/><path d="M1994.16,1235c-1.91.24-7.36,4.17-8.45.86l-15.55-42.24a2.12,2.12,0,0,1,1.26-2.72s10.77,35.09,26.92,29.15c1.19,3-4.19,3.52-5.81,4.4l2.89,7.83A2.11,2.11,0,0,1,1994.16,1235Z" fill="#f49f9f"/><path d="M1994.18,1208.77c-4.54-12.36-11.42-10.87-11.42-10.87,1.81-.38,6.24-3.46,7.27-.42Z" fill="#f9c0c0"/><path d="M1971.52,1055.4s11.29-1.59,18.41-1.17l-8,16.06s-15.9-7.61-16.65-9.37S1971.52,1055.4,1971.52,1055.4Z" fill="#e57d61"/><path d="M1762.78,1496.64a6.2,6.2,0,0,1-5.89,4.78h-29a6.22,6.22,0,0,1-5.85-8c2.24-7.52,7.41-15,6.38-23.08-.21-15.8.06-47.64,0-58h32.67c-.63,8.85-3.63,44-4.63,59.13C1755.23,1480.74,1763,1487.89,1762.78,1496.64Z" fill="#f99370"/><path d="M1805.08,1000.32c-7.74,19.26-12.88,50.2,10.12,61,34.72,13.79,75.06,11.62,110.58,1.28,2-.61,4-1.3,5.93-2l.28-.09,3.86-.14c9.37-.66,13.1,12.91,4.9,17.19-1,.51-2.7,1.59-3.68,2.07-41.16,21.72-113.7,37.84-154.87,9.9-33.48-23-36.66-69.31-26.81-105.32C1765.93,950.34,1816.4,966.72,1805.08,1000.32Z" fill="#f99370"/><path d="M1919.25,1496.64a5.26,5.26,0,0,1-5.23,4.78H1841.6c-.77-7.37,1.71-14.1,1.31-22.18,0,0,0,0,0,0,.33-21.44-4.05-47.47-5.61-66.87h41.62c-.46,8.27-6.48,42.84-6.58,57.66,4.41,16.66,28.5,11.48,39.56,18C1915.22,1489.87,1919.44,1492.55,1919.25,1496.64Z" fill="#f99370"/><path d="M1919.62,1496.64a4.94,4.94,0,0,1-4.93,4.78H1841.6c-.87-7.38,1.06-14.75,1.31-22.18,0,0,0,0,0,0a46.14,46.14,0,0,0,0-5.64c23.57,28.47,65.95,1.84,76.22,20.87h0A4.79,4.79,0,0,1,1919.62,1496.64Z" fill="#eb5648"/><path d="M1762.89,1496.64a6.17,6.17,0,0,1-6,4.78h-29c-8.4-.59-6.42-9.81-3.09-15.11,0,0,16.16-13.13,35.17,0C1761.6,1489.41,1763.42,1493.07,1762.89,1496.64Z" fill="#eb5648"/><path d="M1814.1,956.94c36.49,7.7,58.39,43.66,67.75,77.12,6,21,7.05,42.86,12,64a448.77,448.77,0,0,0,23.67,78.18c4.77,11.28-8.26,21.09-16.8,11.67-17.19-21.53-30.53-45.89-41.75-71-9.06-19.67-15.25-40.73-22.09-61.22-6.29-16.5-14.64-33.7-29-43.15a21.36,21.36,0,0,0-3.92-2c.48.14,1.1.21,1.59.31C1770.28,1005.18,1778.79,951.52,1814.1,956.94Z" fill="#f99370"/><path d="M1914.65,1169.65a46.87,46.87,0,0,1-18.45,12.77c-12.56-16.37-28.91-37.5-38.8-56.27-15.56-43.68-32.53-131.81-41.31-169.84C1892.83,969.11,1891.26,1108.11,1914.65,1169.65Z" fill="#e8c0a6"/><path d="M1895.06,1161.91c-.37,4.36-3.82,7.18-7.71,9-3.77-5-8.33-11.2-12.84-17.6l-8.69-141.51s24.65,30.06,27.8,115.62C1893.62,1127.4,1895.92,1151.55,1895.06,1161.91Z" fill="#d1a68f"/><path d="M1942.54,1191.46a2.05,2.05,0,0,1-2.93,1.08,41.55,41.55,0,0,0-9.92-3.6l-25.74,9.67s-4.46-3.68-4.41-12.45c0-5.1,12.61-12.16,17-10.66a59,59,0,0,1,11.07,5.68C1930.7,1182.31,1944,1187.16,1942.54,1191.46Z" fill="#f99370"/><path d="M1721.45,1468.27s23.55,8.72,39.92,1.58c10-53.19,38.82-160.53,48.64-264.19,0-4.19,32.49,145.81,24.18,260.82,10.39,3.67,33,9.29,43.47.59,7.57-54.15,27.86-207.61-3.58-370.27,0,0-66.77,8.41-125.9-7,0,0-25.8,44.5-19.3,139.67C1734.3,1321.84,1730.25,1413.79,1721.45,1468.27Z" fill="#1d3f70"/><path d="M2190.73,967c-33.87,41-54.65,97.34-109,114.84-33.3,10-68.53,4.79-99.37-9-9.52-4-5.92-19.19,4.27-18.66,40.88,1.42,90.48-4.9,108.22-47.09,15.51-26.47,33.36-52,55.36-73.54C2173.18,909.25,2210,940.11,2190.73,967Z" fill="#e57d61"/><path d="M1780.47,1127.4s-6.53,21.1-32.29,35.49l12.86,13.2c1-1.39,26.62-20.72,33.84-36.71Z" fill="#1d3f70"/><path d="M1728.36,1461.64c5.13-45.29,15.3-142.8,11.45-204.59-2-62.61,6.86-94.26,7-94.57,1.15-2.06,23-11.68,32.33-35.6.63-1.74,3.48-.79,2.77,1-8.22,21.82-28.61,33.88-32.41,36C1735.62,1216.33,1750.3,1404.83,1728.36,1461.64Z" fill="#163860"/><path d="M1879.59,1127.4c-34.42,21.61-117.07,10.18-144.8,2.18-6.32-17,10.44-39.68,7-61.23-8-50.37,17.49-100.3,47.42-111,0-.15,0-2.74,0-2.62l26.88,1.61c13.6,9.69,25.54,20.52,38.68,39.16,19.85,28.15,4.93,42,10.71,68.67C1866.63,1077.08,1887.76,1121.29,1879.59,1127.4Z" fill="#eb5648"/><path d="M1712.24,1161.91h0C1712.24,1162,1712.24,1162,1712.24,1161.91Z" fill="#d8b09a"/><path d="M1879.59,1127.4c-29,15.29-67.33,13.91-98.44,10.53l12.54-7.51s46.35,4.58,87.69-11.57C1882,1123.23,1881.59,1126.31,1879.59,1127.4Z" fill="#ce3932"/><path d="M1789.27,957.31l-.09,0C1789.18,957.13,1789.21,957.11,1789.27,957.31Z" fill="#d8b09a"/><path d="M1798.22,1089.94c-1.44,20.24-9,75.3-11.26,82.23,0,0-44.61,8.31-74.69-10.25.85-2.65,14.28-77.72,16.68-111.7,2.8-52,45.28-90.31,60.23-92.88C1789.42,967.39,1802.64,1053.72,1798.22,1089.94Z" fill="#e8c0a6"/><path d="M2147.74,1030.92c-17.76,81.7-126,63.56-160.42,44.22,6.11-8,2.61-20.91,2.61-20.91,119.61-3.71,104.32-106.79,167.36-128.09C2157.29,926.14,2161.93,984.8,2147.74,1030.92Z" fill="#1d3f70"/><path d="M1816.09,956.31s33,17.67,43.44,63.24c5.84,25.5-1.82,46,3.15,67.25,10.8,46.22,10.8,79.69,10.8,79.69s10.84.34,18.52-6.82C1892,1159.67,1893.72,987.19,1816.09,956.31Z" fill="#e8c0a6"/><path d="M2221.22,1496.87l1.14-.56c0,.75,1,3.35,1.79,3.35l33.73.65c.8,0,1.29-1.41,1.29-2.16l2.88-.77c0-4.73-.42-6.44-2.65-10.1-8.2-10.09,1.58-55.84,1.3-67.78,1.62-3.32-35.4-.66-36-1.47a1.38,1.38,0,0,0-1.44,1.46c-.37,11.86,8.85,57.77,1,67.76C2222,1490.92,2221.21,1492.14,2221.22,1496.87Z" fill="#f99370"/><path d="M2075,1501.42h67.19c5.77-.21,5.87-5.67,4.74-10.17-3.7-15.66,2.84-51.61,4-67.71a5.13,5.13,0,0,0-5.31-5.51c-48.94-.19-33.77-5.27-29.56,45.89,2.08,18.95-19.26,20.23-32.06,22.76-5.27,1.24-10.89,3.19-13.47,6.91C2068.16,1496.91,2070.69,1501.42,2075,1501.42Z" fill="#f99370"/><path d="M2149.48,1494.89c-.2,3.22-1.88,6.6-5.63,6.53h-69.7c-17.41-5,10.66-27.66,41.86-25.89,2.48.56,11.66,2.25,25.57.44C2149.22,1475.14,2149.82,1488.31,2149.48,1494.89Z" fill="#103663"/><path d="M2256.7,1501.42h-29.79c-14.36-1.52-4.21-28,14.89-26.05C2261,1473,2271,1500,2256.7,1501.42Z" fill="#103663"/><path d="M1798.22,1089.94c-.76,9-1.85,19.06-3.06,29-58.57-12-66.12-68-66.21-68.71a151.88,151.88,0,0,1,6.28-29.41Z" fill="#d1a68f"/><path d="M2090.77,1492.63a1.43,1.43,0,0,1-1.32-.86,15.54,15.54,0,0,0-7.72-8.16,1.43,1.43,0,0,1,1-2.68,18,18,0,0,1,9.36,9.7A1.44,1.44,0,0,1,2090.77,1492.63Z" fill="#e8c0a6"/><path d="M2102.27,1491.33a1.43,1.43,0,0,1-1.36-1c-2.35-7.11-9-10.46-9.1-10.5a1.43,1.43,0,0,1,1.26-2.57,22.29,22.29,0,0,1,10.56,12.17A1.43,1.43,0,0,1,2102.27,1491.33Z" fill="#e8c0a6"/><path d="M2115.37,1489.82a1.42,1.42,0,0,1-1.34-.93,25.33,25.33,0,0,0-9.21-11.52,1.43,1.43,0,0,1,1.51-2.43,27.87,27.87,0,0,1,10.38,13A1.43,1.43,0,0,1,2115.37,1489.82Z" fill="#e8c0a6"/><path d="M2147.74,1030.92c-9.8,40.15-41.21,59.35-78.3,60.56h0s21.58-9.64,28-47.3,31.05-76.8,31.05-76.8Z" fill="#163860"/><path d="M2252.49,1483.7c-11.19-6-21.55,1.94-22.95-.87a1.43,1.43,0,0,1,.76-1.88c.52-.22,12.94-5.38,22.88.06A1.44,1.44,0,0,1,2252.49,1483.7Z" fill="#e8c0a6"/><path d="M2069.27,1494.89h80.21a16.49,16.49,0,0,1-2.2,6.53h-73.13C2070.55,1501.42,2068,1498.05,2069.27,1494.89Z" fill="#0f2e54"/><path d="M2256.7,1501.42h-29.79a6.36,6.36,0,0,1-6.6-6.53h43A6.38,6.38,0,0,1,2256.7,1501.42Z" fill="#0f2e54"/><path d="M2158,849.54s-3.8-21.45,15-28.39l11.89,8.93Z" fill="#8c4225"/><path d="M2265.4,1465.82s-31.77,7.23-48.13-.54c-8.52-50-32.17-189.31-40.41-284.76-.32,5.57-17.62,230-20.92,284.76-11.31,3.55-34,7.81-46.74-.76-5.71-57.61-24-247.33,3.58-402.26,0,0,75.71,7.89,134.84-8.84C2263.89,1102.47,2268.21,1406.79,2265.4,1465.82Z" fill="#3a72aa"/><path d="M2121.43,1459.56c-11.49-109.65-5.1-248.71,7.49-316.59,3.79,1.46-4.38,36.26-6.74,94.47C2117.3,1288.63,2120.29,1374.55,2121.43,1459.56Z" fill="#23659b"/><path d="M2240.4,1459.56c-10.08-171-36.73-329.12-34.15-331.6C2209.84,1128.49,2236.64,1289.23,2240.4,1459.56Z" fill="#23659b"/><path d="M2170.77,921.4c-1.65-14.41.6-35.19,2.61-43.75a12.58,12.58,0,0,1,8.09-9.28c9.51-3.3,20.77,4.8,17.84,15.52-.86-.54-3.62,30-1.72,38.51C2222.7,929.93,2147.2,954.7,2170.77,921.4Z" fill="#f99370"/><path d="M2199.57,882.5c-.07.47-.15.94-.26,1.39-.62-.41-2.36,16.45-2.38,28.7-11.5,5.23-24.32,2.93-26.67,2.44.6-16.55-1.11-42.49,11.21-46.66C2190.44,864.53,2201.15,872.71,2199.57,882.5Z" fill="#e57d61"/><path d="M2217.64,871.23c-1.93,12-6,25.49-15.44,33.42h0a29.93,29.93,0,0,1-13.42,6.17c-28,7.82-60.76-24.69-38.91-48.37,8.13-7.61,9.31-19.78,16-27.63,9.2-13.36,29.4-12.67,40.31-1.77C2216,842.9,2219.35,856.47,2217.64,871.23Z" fill="#f99370"/><path d="M2160,885.11l15.71-8C2177.14,886.62,2167.19,892.71,2160,885.11Z" fill="#f9f8f3"/><path d="M2171.9,863.84c-1.09-2.09,2.2-3.76,3.24-1.65S2172.94,866,2171.9,863.84Z" fill="#c16256"/><path d="M2156.65,861.27c-1.09-2.08,2.2-3.75,3.24-1.64S2157.69,863.39,2156.65,861.27Z" fill="#c16256"/><path d="M2217.64,871.23c-1.93,12-6,25.49-15.44,33.42h0a26.8,26.8,0,0,1-2.46,1.81c7.2-7.15,11.37-22.49,11.37-22.49l-1.69-13c-11.63-11.78-6.62-25-6.62-25-19.45,5.46-26-6.54-26-6.54-6.15.79-12.61-2.31-12.61-2.31,8.55-15.18,30.21-15.88,41.95-4.05C2216,842.89,2219.35,856.47,2217.64,871.23Z" fill="#e57d61"/><path d="M2252.71,1145.61a83.27,83.27,0,0,1,0,10.43l13.12,4.8,7-2.92a27,27,0,0,1,1.7-11.64C2276.88,1140,2252.71,1145.61,2252.71,1145.61Z" fill="#f99370"/><path d="M2160,885.79a.69.69,0,0,1-.32-1.29c.43.17,16.68-9.45,16.64-7.73a.68.68,0,0,1-.3.92C2175.64,877.8,2160.4,885.83,2160,885.79Z" fill="#c16256"/><path d="M2162.42,877.05c-3.32,0-8.48-2.28-4.28-5.23,3.42-1.85,5.94-9,6-9a.68.68,0,0,1,1.29.45c-.11.31-2.72,7.68-6.61,9.79-2.69,1.64,2.91,3.24,5.23,2.42a.69.69,0,0,1,.86.45C2165.08,877.13,2163.28,877,2162.42,877.05Z" fill="#c16256"/><path d="M2258.15,1139.35c-4.09,3.49-10.23,6.22-17.74,8.28h0c-43.07,11.79-131.36,1.54-138.65-13.64-5.82-12.13-6.21-50,2-90.19,10.89-55.82,28-95.14,67-122.39-.19.79-5.16,21.45,26.83,1l9.84,1.76C2210.74,977.65,2282.87,1114.61,2258.15,1139.35Z" fill="#1d3f70"/><path d="M2208.65,821.15l-.2.4c-6.47-7.68-18.25-11.44-20.95-19.25a33.93,33.93,0,0,0-3.54,15.86,62.28,62.28,0,0,1-8.26-11.5,18.57,18.57,0,0,0-5.39,10.66,33.14,33.14,0,0,0-18.93,1.85c5.19,14.65,17.28,17.87,26.77,17.93,7.61,7.28,19.62,10.72,31.4,4.18-6.48,5.45-7.25,22.38,10.49,34.31,0,0,3.08-10.3,2.41-19.87C2239.09,826.88,2208.65,821.15,2208.65,821.15Z" fill="#8c4225"/><path d="M2225.25,877.28c-3.1,13.66-19.45,10.21-16.76-3.54C2211.6,860.08,2227.94,863.54,2225.25,877.28Z" fill="#f99370"/><path d="M2220.93,880.1a.7.7,0,0,1-.66-.89c2.54-7.36-.47-10.24-5.5-8.28a.69.69,0,0,1-.5-1.28c5.72-2.33,10.41,1.29,7.32,10A.69.69,0,0,1,2220.93,880.1Z" fill="#c16256"/><path d="M2214.52,879.14c-2.13-.17,1.93-6.75,7.14-7.1a.69.69,0,1,1,.09,1.37C2216.44,874,2215.78,879,2214.52,879.14Z" fill="#c16256"/><path d="M2155.94,1465.28a76.1,76.1,0,0,1-9.8,2.45s16-222.75,18.34-252.48,12.38-34.73,12.38-34.73S2155.68,1460.47,2155.94,1465.28Z" fill="#23659b"/><path d="M2156.57,1454.49c-.42,6.42-.66,10.26-.63,10.79-11.31,3.55-34,7.81-46.74-.76,0,0-.4-3.53-1.06-10C2108.14,1454.49,2130.41,1464.08,2156.57,1454.49Z" fill="#23659b"/><path d="M2265.4,1465.82s-31.77,7.23-48.13-.54c0,0-.68-3.87-1.86-10.79,0,0,21.65,5.87,49.65,0C2265.19,1461.24,2265.3,1465.26,2265.4,1465.82Z" fill="#23659b"/><path d="M1834.19,1466.48s30.37,11.31,43.47.59c0,0,.59-3.57,1.53-10.18,0,0-22.78,7.86-44.34-3.78h0Q1834.6,1459.84,1834.19,1466.48Z" fill="#163860"/><path d="M1721.45,1468.27s23.55,8.72,39.92,1.58c0,0,1-4.66,2.6-13,0,0-14.7,7.68-40.37-1.88C1722.89,1460.31,1722.17,1464.77,1721.45,1468.27Z" fill="#163860"/><path d="M1834.84,1453.12q-.24,6.72-.65,13.36s3.38,1.26,8.37,2.53c-.11-79.92,0-208.89-32.55-263.35C1810,1205.66,1839.52,1327.76,1834.84,1453.12Z" fill="#163860"/><path d="M1810,1207.14c-3.86-.18,2.36-11.83,4.63-26.44a1.48,1.48,0,0,1,2.9.6C1813.76,1196.36,1812.83,1206.11,1810,1207.14Z" fill="#163860"/><path d="M1931.51,1060.75c12.63-6.58,25.86-5.11,45.59,2,6.86.83,11.47,13.68.44,15.77-16.1,3-36.82-1.18-36.82-1.18Z" fill="#f99370"/><path d="M1952,1063.64a31.57,31.57,0,0,1,22.74-8.31c5.23-.14,8.83,7.69,3.58,7.68-6.52-1.11-17,.19-22.55,3.94C1953.4,1069.41,1949.62,1066.19,1952,1063.64Z" fill="#e57d61"/><path d="M1957.92,1078.61c-2.52,4.49-7.89,1.39-5.27-3S1960.55,1074.18,1957.92,1078.61Z" fill="#e57d61"/><path d="M1963.27,1079.16c-2.53,4.49-7.9,1.39-5.27-3.05S1965.89,1074.72,1963.27,1079.16Z" fill="#e57d61"/><path d="M1968.73,1079.7c-2.53,4.49-7.9,1.39-5.28-3S1971.35,1075.27,1968.73,1079.7Z" fill="#e57d61"/><path d="M1974.27,1079.7c-2.53,4.49-7.9,1.39-5.27-3S1976.9,1075.27,1974.27,1079.7Z" fill="#e57d61"/><path d="M2207.43,924.16c.18,12.2-31.14,23-32.91,23l-3.75-11.1c-4.82,1.19-9.07,7.93-9.07,7.93-13.81-13.72-1.18-24.44,9.07-22.58h0c-.2.79-2.38,18.9,26.71.36C2201.22,920,2207.43,924.16,2207.43,924.16Z" fill="#f4d4be"/><rect x="2192.46" y="1201.8" width="149.81" height="109.21" transform="translate(-156.16 336.6) rotate(-8.21)" fill="#8c4225"/><polygon points="2201.02 1321.14 2192.47 1316.25 2176.86 1208.16 2185.41 1213.06 2201.02 1321.14" fill="#7f341c"/><polygon points="2176.86 1208.16 2325.18 1186.8 2333.7 1191.67 2185.41 1213.06 2176.86 1208.16" fill="#7f341c"/><path d="M2287.81,1192.18c-14.53-29.82-52.11-21.4-60.54,8.72-.14,2.46,1.5,4.68,3.63,4.35,2.56-.42,2.86-3.54,3.95-5.44,6.06-13.73,22.6-22.67,36.36-14.73a29.94,29.94,0,0,1,10.71,10.35C2284.19,1199.05,2288.47,1195.76,2287.81,1192.18Z" fill="#8c4225"/><polygon points="2185.41 1213.06 2267.36 1256.41 2333.7 1191.67 2185.41 1213.06" fill="#99452b"/><path d="M2269.52,1265.64c-3.4,1-7.32-.63-7.83-4.41-.5-4.5-3.42-13.06,3.52-14.06,3.4-1,7.31.63,7.82,4.41C2273.54,1256.08,2276.45,1264.65,2269.52,1265.64Z" fill="#f4d4be"/><path d="M2252.74,1156s-6.82,14.66-6.82,30.53l22.55,1.29c7.32-10.6,4.36-29.94,4.36-29.94Z" fill="#f99370"/><path d="M2258.15,1139.35c-4.09,3.49-10.23,6.22-17.74,8.28,1.75-21.59-1.76-55.75-16.94-94.22s-14.49-78-14.49-78l11.2.84C2239.84,1031.34,2276.15,1124,2258.15,1139.35Z" fill="#163860"/><path d="M2207.43,924.16c82.18,18.17,105.08,147.5,65.4,233.76,0,0-8.81,2.92-20.09-1.88,0,0-.38-61.64-25.31-111.35S2207.43,924.16,2207.43,924.16Z" fill="#1d3f70"/><path d="M1762.89,1496.64a6.17,6.17,0,0,1-6,4.78h-29a6.16,6.16,0,0,1-6-4.78Z" fill="#ce3932"/><path d="M1919.62,1496.64a4.94,4.94,0,0,1-4.93,4.78H1841.6a22.94,22.94,0,0,1-.25-4.78Z" fill="#ce3932"/><path d="M1915.11,1170.2a42.27,42.27,0,0,1-18,13.11,13.41,13.41,0,0,1-5.13-6.3s15.68-5.69,19.82-15.1A14.84,14.84,0,0,1,1915.11,1170.2Z" fill="#d1a68f"/><path d="M1927.08,1084.73c-51.62,42.08-153,49.35-185-13.22-29.39-58.12,9.85-108.27,47.21-114.2,0,0,12.35,35.4,8.36,61.67l.33,23.78c15.38,31.12,94.76,26.55,123.91,20.79C1932.46,1074.1,1927.08,1084.73,1927.08,1084.73Z" fill="#e8c0a6"/><path d="M1929,1083.74c-2.65,3.06-5.83,3.82-7.8,5.15,2.39-17.61-6.58-24.13-6.58-24.13a16.38,16.38,0,0,1,8.29-1.21C1931.51,1071.8,1929,1083.74,1929,1083.74Z" fill="#d1a68f"/><path d="M1789.16,954.22s-10.59,2-16.82,9.32c0,0,10.75,23.05,18.41,33.38-9.32,16.44,2.19,38.2,7.21,45.84C1798,1042.76,1805.74,990,1789.16,954.22Z" fill="#d1a68f"/><path d="M1870.89,1069c-6,0-10-.21-10-.21a.84.84,0,0,1,.09-1.68,237.3,237.3,0,0,0,29.62-.62.84.84,0,0,1,.91.76.86.86,0,0,1-.76.92C1883.45,1068.82,1876.34,1069,1870.89,1069Z" fill="#d1a68f"/><path d="M1868,1113.87c-5.19-2,18.12-5.46,29.69-12.46a.84.84,0,0,1,1.13.36.83.83,0,0,1-.35,1.13C1885.92,1109.39,1868.55,1113.81,1868,1113.87Z" fill="#d1a68f"/><path d="M1976.58,1067.94c-6.55-.22-16.27,0-13.18-1.76.12,0,11.88,1.14,19.48.37C1985.79,1068.24,1977.65,1067.86,1976.58,1067.94Z" fill="#e57d61"/><path d="M1974.22,1072.67c-.16,0-14,0-10.39-1.91a62.76,62.76,0,0,0,20.2,0C1986.8,1072.13,1980.5,1072.57,1974.22,1072.67Z" fill="#e57d61"/><path d="M2251.82,1187.86c-2.4,4.56-7.86,1.62-5.36-2.89S2254.31,1183.35,2251.82,1187.86Z" fill="#f99370"/><path d="M2257.17,1188.25c-2.39,4.56-7.85,1.62-5.36-2.89S2259.67,1183.74,2257.17,1188.25Z" fill="#f99370"/><path d="M2262.64,1188.63c-2.39,4.56-7.85,1.62-5.36-2.89S2265.14,1184.12,2262.64,1188.63Z" fill="#f99370"/><path d="M2268.19,1188.47c-2.4,4.56-7.86,1.62-5.36-2.89S2270.68,1184,2268.19,1188.47Z" fill="#f99370"/><path d="M1822.47,961c-1.27,15.33-28.26,5.26-29.5,3.27-.4-1.06-4.45-8.5-3.76-9.56l26.88,1.61S1818.55,957.89,1822.47,961Z" fill="#ce3932"/><path d="M1787.54,847.16c33-5.13,65.16,35.89,46.46,72.85Z" fill="#163260"/><path d="M1816.09,956.31c1.65-14.41-.6-35.19-2.61-43.75-3.82-16.9-30.21-10.46-25.93,6.24.86-.54,1.66,35.9,1.66,35.9C1793.51,961.53,1816.09,967.32,1816.09,956.31Z" fill="#f99370"/><path d="M1789,947.9c11.51,5.23,25.23,2.52,27.57,2C1820.43,891.33,1790.53,885.34,1789,947.9Z" fill="#e57d61"/><path d="M1769.22,906.13c1.93,12,6,25.5,15.44,33.42h0a29.84,29.84,0,0,0,13.42,6.17c28,7.83,60.76-24.68,38.91-48.36-7.94-7.34-9.63-20.34-16-27.64-9.2-13.36-29.4-12.66-40.31-1.77C1770.88,877.8,1767.51,891.38,1769.22,906.13Z" fill="#f99370"/><path d="M1826.87,920l-15.71-8C1809.73,921.52,1819.67,927.62,1826.87,920Z" fill="#f9f8f3"/><path d="M1815,898.74c1.09-2.08-2.2-3.75-3.24-1.64S1813.92,900.86,1815,898.74Z" fill="#c16256"/><path d="M1830.21,896.18c1.09-2.08-2.2-3.76-3.24-1.64S1829.17,898.29,1830.21,896.18Z" fill="#c16256"/><path d="M1826.87,920.7c-.39,0-15.67-8-16-8.1a.7.7,0,0,1-.3-.93c-.12-1.75,16.29,7.94,16.64,7.73A.69.69,0,0,1,1826.87,920.7Z" fill="#c16256"/><path d="M1824.44,912c-.86-.09-2.65.07-2.46-1.15a.7.7,0,0,1,.87-.45c2.31.82,7.91-.78,5.22-2.43-3.89-2.1-6.5-9.47-6.61-9.78a.69.69,0,0,1,1.29-.46c0,.08,2.55,7.18,6,9C1832.93,909.68,1827.76,911.91,1824.44,912Z" fill="#c16256"/><path d="M1769.22,906.13c1.93,12,6,25.5,15.44,33.42h0c-5.25-6.51-8.52-21.08-8.52-21.08l2.48-6.48c41.61-13.43,38-46.85,38-46.85-6.2-5.43-14.58-6.52-22.56-4.54C1774.59,865.65,1766.76,886.75,1769.22,906.13Z" fill="#e57d61"/><path d="M1812.26,862.16a58.82,58.82,0,0,0-6.16-3.52c1.48-4.43,1.74-9.93.18-16.33-8.64-31.39-45.17-21.92-37.48,9.7a34.41,34.41,0,0,0,3.67,8.74c-10.8,9.16-14.55,26.61-7.46,40.52l13.36,7.38C1815.61,895.12,1812.26,862.16,1812.26,862.16Z" fill="#163260"/><path d="M1761.61,912.19c3.11,13.66,19.45,10.2,16.76-3.54C1775.26,895,1758.92,898.44,1761.61,912.19Z" fill="#f99370"/><path d="M1765.93,915a.68.68,0,0,1-.65-.48c-3.11-8.68,1.6-12.3,7.31-10a.69.69,0,0,1-.5,1.28c-5-2-8,.92-5.5,8.28A.69.69,0,0,1,1765.93,915Z" fill="#c16256"/><path d="M1772.34,914c-1.24-.16-1.93-5.19-7.23-5.73a.68.68,0,0,1-.64-.73.7.7,0,0,1,.73-.64C1770.41,907.3,1774.47,913.87,1772.34,914Z" fill="#c16256"/><path d="M1769.11,918.47a1.54,1.54,0,0,0,3.08,0A1.54,1.54,0,0,0,1769.11,918.47Z" fill="#f4d4be"/><path d="M1816.3,954.22s32.26,15.08,37.75,40.21c0,0,14.36,14.23,7.84,41.74,0,0-15.78-50.85-45.8-79.86Z" fill="#d1a68f"/><path d="M1821,976.71c.06,3.72-5.78,3.72-5.73,0S1821,973,1821,976.71Z" fill="#ce3932"/><path d="M1826.71,989c.06,3.71-5.78,3.71-5.73,0S1826.77,985.32,1826.71,989Z" fill="#ce3932"/><path d="M1832.45,1002.36c0,3.72-5.79,3.72-5.74,0S1832.5,998.64,1832.45,1002.36Z" fill="#ce3932"/><path d="M2251.34,1189.15c-1.35-.13.34-6.89,1.39-11.73a.56.56,0,0,1,.69-.39.57.57,0,0,1,.39.7C2252.15,1182.74,2252.54,1188.85,2251.34,1189.15Z" fill="#e57d61"/><path d="M2256.73,1189.15c-1.38-.13.55-6.46,1.63-11.25a.56.56,0,1,1,1.08.32C2257.77,1183.06,2257.91,1188.81,2256.73,1189.15Z" fill="#e57d61"/><path d="M2262.64,1189.2c-1.49-.33,1.23-5.71,1-11.15a.55.55,0,0,1,.57-.55.56.56,0,0,1,.55.57,54.34,54.34,0,0,1-1.61,10.71A.58.58,0,0,1,2262.64,1189.2Z" fill="#e57d61"/></g><g id="_1" data-name="1"><path d="M234.67,936.77c37.74-7.21,30.58-32.77,67.11-20,0,0,33.7-21.7,36.86,35.94,2.75,50.13-21.22,74.22-59.38,94.81-45.28,24.43-116.48-2.18-113.52-58.73C167.8,949.45,197.63,943.84,234.67,936.77Z" fill="#1d3f70"/><path d="M326.29,1009c61.38,19.75,95.18-4.22,120.78-60.14,2.55-10.23,16.71-9.16,15.78,1.75-.18,1.81-.85,4.21-1.14,6-16.19,76.34-74.57,112.13-149,84.81C291.55,1032.41,305,1000.19,326.29,1009Z" fill="#f99370"/><path d="M313.58,1005.3s8.56-3.45,17.12,0,31.09,7.18,46.28,4.81S414,993,420.87,983s11-19.21,18.17-17c0,0,6.52,5.06,19.2,4,0,0,11,14.61-6.51,41.76-17.07,26.49-60.31,64.32-125.88,52.49Z" fill="#3a72aa"/><path d="M589.54,900l-233,40.7h-.28c-2.17.19-3.65,3.49-3.31,7.37s2.37,6.87,4.54,6.68l.28-.05L594.3,954Z" fill="#eb5648"/><ellipse cx="591.92" cy="926.99" rx="12" ry="27.14" transform="translate(-79.01 55.48) rotate(-5.03)" fill="#ce3932"/><ellipse cx="591.92" cy="926.99" rx="9.02" ry="20.4" transform="translate(-79.01 55.48) rotate(-5.03)" fill="#aab9e8"/><path d="M314.48,997.56l-1.09,7.85c-4,13.09-21.43,2.84-24.31-2.35,0,0,1.57-7.44,1.88-10.92Z" fill="#f99370"/><path d="M155.6,1490.71,119.14,1446c1.74-2.7,14.36-9.31,18-13,2.61-1.86,31.71-31.5,34.81-34.46l20.93,25.68L156.45,1447a10.62,10.62,0,0,0-4.28,12.84c3.58,10.82,12.78,19,10.61,29.56A4.17,4.17,0,0,1,155.6,1490.71Z" fill="#f99370"/><path d="M122.33,1441.12a14.73,14.73,0,0,0-3.2,4.86l36.77,45.1a4.14,4.14,0,0,0,6.72-.39c3.44-5.65,5.61-17.32-10.25-39,0,0-7.87-5.35-15.24-18.69C137.13,1433,127.85,1435.38,122.33,1441.12Z" fill="#1d3f70"/><path d="M165.06,1476.85c-2.1.54-3.54-2.36-10.42-.36a1.18,1.18,0,0,1-1.47-.78C153.59,1471.28,169.33,1474.13,165.06,1476.85Z" fill="#e8c0a6"/><path d="M162.37,1468.56a1.16,1.16,0,0,1-1.06.06h0a16.5,16.5,0,0,0-11.51,0,1.18,1.18,0,0,1-.88-2.18,18.47,18.47,0,0,1,13.32,0A1.19,1.19,0,0,1,162.37,1468.56Z" fill="#e8c0a6"/><path d="M157.35,1459.16c-1.56.57-5.72-2-13.18.62a1.18,1.18,0,0,1-.8-2.22C151,1455.12,160.1,1456.09,157.35,1459.16Z" fill="#e8c0a6"/><path d="M162.67,1490.6l-40.34-49.48a14.73,14.73,0,0,0-3.2,4.86l36.77,45.1A4.13,4.13,0,0,0,162.67,1490.6Z" fill="#395b96"/><path d="M335.49,1499.72l-57.64-.63c-1-3.08,2-17,1.55-22.13,0-2.16-.57-14-.77-16.18l4.31-32.52,25.41.28-5.81,42.56a10.62,10.62,0,0,0,7.13,11.5c10.59,4.16,22.68,2.35,29.46,10.71A4.2,4.2,0,0,1,335.49,1499.72Z" fill="#f99370"/><path d="M276.16,1493.52a14.67,14.67,0,0,0,1.69,5.57l58.2.64a4.13,4.13,0,0,0,4-5.41c-2.14-6.26-9.71-15.4-36.52-17.09,0,0-9.16,2.61-24.13-.27C279.4,1477,275.28,1485.61,276.16,1493.52Z" fill="#1d3f70"/><path d="M322.94,1492.08a1.18,1.18,0,0,1-1.08-1.64c2.6-6.21,7.34-8.08,7.54-8.15a1.18,1.18,0,0,1,.85,2.2c-.18.07-4,1.64-6.22,6.86A1.18,1.18,0,0,1,322.94,1492.08Z" fill="#e8c0a6"/><path d="M313.79,1490.87a1.18,1.18,0,0,1-1.12-1.54c2.16-7.82,12.4-13.6,9.59-8.13a16.42,16.42,0,0,0-7.35,8.85A1.18,1.18,0,0,1,313.79,1490.87Z" fill="#e8c0a6"/><path d="M303.38,1489.48a1.18,1.18,0,0,1-1.11-1.58,23.39,23.39,0,0,1,8.38-10.91,1.18,1.18,0,0,1,1.28,2,21.29,21.29,0,0,0-7.44,9.73A1.18,1.18,0,0,1,303.38,1489.48Z" fill="#e8c0a6"/><path d="M340,1494.23l-63.86-.71a14.67,14.67,0,0,0,1.69,5.57l58.2.64A4.13,4.13,0,0,0,340,1494.23Z" fill="#395b96"/><path d="M291.56,967.33c0,.42,0,.84.08,1.26.6-.3.36,14.9-.93,25.8,9.69,5.88,21.35,5.19,23.49,5,1.87-13.78,2.11-26.5,1-34.64C312.66,950.9,291.09,953.26,291.56,967.33Z" fill="#e57d61"/><path d="M275.88,959c1.89,10.72,5.69,22.77,14.28,29.76h0a26.84,26.84,0,0,0,12.11,5.36c24.94,6.82,54.27-23.17,34.27-43.87-7.22-6.47-8.9-18.1-14.67-24.56-8.43-11.86-26.53-11-36.17-1.07C277,933.58,274.16,945.79,275.88,959Z" fill="#f99370"/><path d="M316.8,951.78a1.63,1.63,0,0,0-2.92-1.43A1.63,1.63,0,0,0,316.8,951.78Z" fill="#c16256"/><path d="M330.44,949.28a1.63,1.63,0,0,0-2.92-1.43A1.63,1.63,0,0,0,330.44,949.28Z" fill="#c16256"/><path d="M305.31,1468.68c-19.63,3.8-33.83-7.81-33.83-7.81,1.17-4,2.25-8,3.3-12h0c36.1-137.49-1.71-209.8-1.71-209.8-8,71.07-27,140.72-95.53,202.09q-4.34,3.89-8.93,7.71c-15.45-3.44-29.8-28.93-29.8-28.93q3.63-4.25,6.94-8.52c75.85-97.63,37.49-202.19,72.16-266.84,18.43-34.39,91.44-12.87,119.22,19.28C383.77,1310.25,329.77,1422.18,305.31,1468.68Z" fill="#eb5648"/><path d="M326.42,963.43c-1,0-3.2.43-3.16-.93a.61.61,0,0,1,.76-.41c2.08.63,5-.44,5.37-1.38.14-.33-.31-.65-.71-.86-3.48-1.68-8.09-11.32-4.9-9.11,0,.06,2.38,6.4,5.47,8C332.75,961.1,329.16,963,326.42,963.43Z" fill="#c16256"/><path d="M160.59,1435.29l-2.22-2.09c.6-.63,60.25-64.3,77.13-120.55s15-149,15-150l3.05-.06c0,.93,1.91,94.08-15.14,150.9S161.19,1434.65,160.59,1435.29Z" fill="#ce3932"/><path d="M275.88,959c1.89,10.72,5.69,22.77,14.28,29.76h0C285.39,983,282.27,970,282.27,970l2.14-5.85c37.14-12.58,33.51-42.49,33.51-42.49C293.86,904.9,270.62,934.46,275.88,959Z" fill="#e57d61"/><path d="M313.91,919s3.43,29.5-29.79,42.11L272,954.69C260,931.93,280.71,898,313.91,919Z" fill="#1d3f70"/><path d="M274.81,910.49c8.14,28,40.78,19.06,33.48-9.19C300.14,873.28,267.5,882.24,274.81,910.49Z" fill="#1d3f70"/><path d="M269.14,964.53c2.6,12.11,17.85,8.66,15-3.4C281.52,949,266.26,952.47,269.14,964.53Z" fill="#f99370"/><path d="M273.12,967c-2.57-2.62-1.65-8-.33-8.91,2.4-2,6.76-1,6.45.25-.75,1.24-3.26-1.33-5.61.65C271.22,960.81,274.56,965.94,273.12,967Z" fill="#c16256"/><path d="M278.85,966c-1.25,0-1.78-4.61-6.62-5a.62.62,0,0,1-.59-.65C275,957.76,281.16,966.27,278.85,966Z" fill="#c16256"/><path d="M276,970.06a1.38,1.38,0,0,0,2.76,0A1.38,1.38,0,0,0,276,970.06Z" fill="#f4d4be"/><path d="M271.48,1460.88s14.2,11.61,33.83,7.8c0,0,2.18-3.59,5.65-10.28,0,0-23.57,2.22-36.17-9.56h0Q273.24,1454.77,271.48,1460.88Z" fill="#ce3932"/><path d="M274.77,1448.84c-.35,1.39-.72,2.78-1.1,4.19h7c24.59-73.64,28.88-194.93-7.61-214,0,0,37.81,72.31,1.71,209.81Z" fill="#ce3932"/><path d="M297.8,1464.53c19.31-44,32.18-87,38.27-127.69,4.88-32.61,5.45-63.87,1.68-92.91-6.42-49.54-23.51-75.86-23.68-76.12l-2.24,1.48c.17.26,17,26.19,23.28,75.18,5.84,45.24,3.67,120-39.77,219Z" fill="#ce3932"/><path d="M343.19,1092.68c-5.1,15-12.84,30.64-3.27,60.26,1.07,7.89-2.78,10.88-2.78,10.88-36.93,12.33-89.55,1.11-121.13-14-18.09-14.73,6.61-42.72,8.06-52.32,15.4-102.38,49-98,65.72-98,5.5,6.39,19.14,16.93,23.79,5.79,24,3.44,16.85,30.33,23.13,40.21,6.5,10.28,9.29,18.56,9.92,25.85C347.3,1079.16,345.52,1085.85,343.19,1092.68Z" fill="#3a72aa"/><path d="M324.14,968a5.29,5.29,0,0,0,1.88-.33.75.75,0,0,0,.39-1,.74.74,0,0,0-1-.39,4.48,4.48,0,0,1-4.68-1.28.75.75,0,1,0-1,1.08A6.3,6.3,0,0,0,324.14,968Z" fill="#c16256"/><path d="M308.92,946a.75.75,0,0,0,.29-.06l6.94-2.81a.75.75,0,1,0-.56-1.39l-6.95,2.81a.75.75,0,0,0,.28,1.45Z" fill="#c16256"/><path d="M322.71,942.34H329a.76.76,0,0,0,0-1.51h-6.27a.76.76,0,0,0,0,1.51Z" fill="#c16256"/><path d="M267.3,1048.93c24.91,13.37,52.91,26,82.09,22.35,43.42-8.23,58.55-57.34,60.06-96,.59-6,.48-13.55-7.38-13.89-8.91.09-7.91,10.75-10.27,16.83-21.06,66.15-45.5,70.94-101.66,34.47C266.36,997.85,243.67,1033.9,267.3,1048.93Z" fill="#f99370"/><path d="M391.89,940.81c3.39-.28,2.73,7.79,4.7,10.2a47.78,47.78,0,0,0,4.66-10.12c.75-6.74,1.14-13.51,1.22-20.3,5.32-8.83,4.51,17.11,4.89,19.67l.1,0a152.75,152.75,0,0,0,5.41-20.61c7.47-7.85.29,20.18-.11,22.84l0,0a88.53,88.53,0,0,0,7.38-18.92c8.23-7.25-1.27,20.66-2.53,23.08l.06.06a91.87,91.87,0,0,0,8.18-13.91c8.64-5.65-3,17.32-4.41,19.41-.23,1.92-5.08,10.62-13.18,19.63-2.66,3-12.51-2.17-13.77-5.86-1.18-3.47-1.46-8.45-1.61-10.24C392.05,952.33,388.36,942.9,391.89,940.81Z" fill="#f99370"/><path d="M409.88,973.31s-7.18,2.32-15.78-4.66a5.87,5.87,0,0,0-1,4.71,18.25,18.25,0,0,0,16.63,4.57A5.59,5.59,0,0,0,409.88,973.31Z" fill="#10325b"/><path d="M343.19,1092.68h0c-54.7,6.48-76.72-30.76-76.72-30.76l80.17,9.43C347.3,1079.16,345.52,1085.85,343.19,1092.68Z" fill="#23659b"/><path d="M282.33,1002s14.06,6.81,23.32,14.68,21.14,15.36,33.2,14,24.07-6.45,30.58-19.86c6-12.26,12.55-24.86,19.65-24.43,0,0,9.91,4.69,19.31,2.39,0,0,15.22,10-2.61,52.22s-71.08,49.28-92.2,46c-32.62-5.15-58.58-29-61.33-55.21S272.16,1001.59,282.33,1002Z" fill="#3a72aa"/><path d="M177.55,1441.12q-4.34,3.89-8.93,7.71c-15.45-3.44-29.8-28.93-29.8-28.93q3.63-4.25,6.94-8.52S158.36,1434.88,177.55,1441.12Z" fill="#ce3932"/><path d="M396.94,1056.53a.78.78,0,0,1-.47-.17.75.75,0,0,1-.13-1.06c.12-.15,11.52-14.88,16.23-38.14,3.23-16-1.08-22.91-1.12-23a.76.76,0,1,1,1.28-.83c.19.3,4.68,7.53,1.33,24.1-4.79,23.63-16.4,38.63-16.52,38.78A.76.76,0,0,1,396.94,1056.53Z" fill="#23659b"/><path d="M336.81,1031.65a28.64,28.64,0,0,1-3.78-.21c-10.95-.51-27.18-13.64-27.86-14.2a.76.76,0,0,1-.11-1.07.75.75,0,0,1,1.07-.11c.16.13,16.52,13.37,27.05,13.87.31,0,24.07,3.32,35.05-18.48a.76.76,0,0,1,1-.33.75.75,0,0,1,.34,1C360.81,1029.56,344.25,1031.65,336.81,1031.65Z" fill="#23659b"/></g></g></g></svg>